<?xml version="1.0" encoding="UTF-8"?>
<svg width="752pt" height="752pt" version="1.1" viewBox="0 0 752 752" xmlns="http://www.w3.org/2000/svg">
 <path d="m333.38 191.3c78.355 0 142.07 63.723 142.07 142.07 0 27.316-7.7578 52.77-21.16 74.441l103.59 103.59c3.6484 3.6914 3.6484 9.6328 0 13.32l-33.148 33.152c-3.6914 3.6484-9.6328 3.6484-13.32 0l-103.6-103.6c-21.672 13.402-47.125 21.164-74.441 21.164-78.352 0-142.07-63.723-142.07-142.07 0-78.352 63.723-142.07 142.07-142.07zm0 18.945c-68.113 0-123.13 55.012-123.13 123.13 0 68.117 55.016 123.13 123.13 123.13 68.117 0 123.13-55.016 123.13-123.13 0-68.117-55.016-123.13-123.13-123.13zm109.81 213.11c-5.9297 7.2227-12.609 13.75-19.832 19.684l94.719 94.863 19.828-19.832z" fill="#fff"/>
</svg>