<svg width="128" height="152" viewBox="0 0 128 152" fill="none" xmlns="http://www.w3.org/2000/svg">
<path d="M119.325 8.52775H104.599V5.145H107.131C108.833 5.145 110.246 3.73367 110.246 2.0044V-3.86088C110.246 -5.58867 108.835 -7 107.107 -7H20.8964C19.1686 -7 17.7573 -5.58867 17.7573 -3.86088V2.0044C17.7573 3.73219 19.1686 5.14352 20.8964 5.14352H23.4279V8.52627H8.67873C4.34651 8.52627 0.816772 12.0561 0.816772 16.3882V37.9535C0.816772 55.1123 13.4726 69.9836 30.3406 72.7839C35.9145 81.0349 44.4333 87.0709 54.363 89.5046V103.67H47.3538C44.9931 103.67 43.0455 105.592 43.0455 107.978V112.627H39.4429C34.3561 112.627 30.2186 116.764 30.2186 121.851V139.035H25.1809C23.8186 139.035 22.7222 140.13 22.7222 141.494V148.796C22.7222 150.158 23.8171 151.255 25.1809 151.255H102.751C104.113 151.255 105.209 150.16 105.209 148.796V141.494C105.209 140.132 104.115 139.035 102.751 139.035H97.7131V121.851C97.7131 116.764 93.5756 112.627 88.4888 112.627L84.9337 112.628V107.98C84.9337 105.619 83.0113 103.671 80.6255 103.671H73.6162V89.5061C83.5459 87.0726 92.0898 81.0364 97.6387 72.7853C114.507 69.9864 127.162 55.1153 127.162 37.9549V16.3897C127.188 12.0575 123.657 8.52775 119.325 8.52775ZM104.574 18.7264H116.939V37.9549C116.939 47.5447 111.633 56.0631 103.236 60.2987C104.087 57.0378 104.575 53.6534 104.575 50.1252L104.574 18.7264ZM20.1891 2.00413V-3.86115C20.1891 -4.25037 20.5056 -4.56683 20.8948 -4.56683H107.106C107.495 -4.56683 107.811 -4.25039 107.811 -3.86115V2.00413C107.811 2.39335 107.495 2.70982 107.106 2.70982H20.8948C20.5056 2.70982 20.1891 2.39338 20.1891 2.00413ZM24.7647 60.2957C16.4647 56.0365 11.0375 47.3709 11.0375 37.9519V18.7488H23.426V50.1221C23.426 53.6519 23.9135 57.0348 24.7647 60.2957ZM3.25009 37.9534V16.3882C3.25009 13.3947 5.68352 10.961 8.67724 10.961H23.4264V16.3152H9.82125C9.13934 16.3152 8.60453 16.85 8.60453 17.5319V37.9531C8.60453 49.0269 15.4442 59.1768 25.6908 63.3885C26.4945 65.6763 27.4676 67.8675 28.6353 69.9608C14.0078 66.5275 3.25009 53.2137 3.25009 37.9534ZM102.799 141.446L102.775 148.772L25.205 148.748V141.446L25.2287 141.422L102.799 141.446ZM95.3273 121.828V139.013L32.7001 139.011V121.827C32.7001 118.079 35.7427 115.036 39.4907 115.036H88.5595C92.284 115.038 95.3273 118.079 95.3273 121.828ZM82.5003 107.954V112.603H45.5039V107.954C45.5039 106.932 46.3314 106.079 47.3788 106.079H80.6506C81.6728 106.105 82.5003 106.932 82.5003 107.954ZM71.2067 103.671H56.8215V90.0404C59.1583 90.4549 61.5679 90.7223 64.0251 90.7223C66.4838 90.7223 68.8681 90.4787 71.2051 90.0404L71.2067 103.671ZM64.0015 88.2875C42.9725 88.2875 25.8593 71.1777 25.8593 50.1453L25.8608 5.14215H102.141V50.1225C102.141 71.1766 85.0316 88.2875 63.9992 88.2875H64.0015ZM124.754 37.9561C124.754 53.2164 114.02 66.5306 99.3925 69.9622C100.56 67.8928 101.535 65.6791 102.337 63.3899C112.73 59.1307 119.423 49.2006 119.423 37.931V17.4858C119.423 16.8039 118.888 16.2691 118.207 16.2691H104.625V10.9385H119.351C122.344 10.9385 124.778 13.372 124.778 16.3657L124.779 37.9564L124.754 37.9561Z" fill="white"/>
<path d="M84.0808 37.1506L71.9357 35.3738L66.5086 24.3727C66.045 23.4233 65.0705 22.8142 63.9993 22.8142C62.9282 22.8142 61.9551 23.4233 61.4931 24.3727L56.0659 35.3738L43.9208 37.1506C42.8497 37.2962 41.9984 38.0271 41.6568 39.0492C41.3166 40.0713 41.6077 41.1662 42.3624 41.9209L51.1486 50.4884L49.0791 62.5859C48.9083 63.6318 49.3227 64.6792 50.1993 65.3121C51.0758 65.9449 52.1944 66.0177 53.1438 65.5304L63.9992 59.8108L74.8782 65.5304C75.2927 65.7488 75.7295 65.8469 76.193 65.8469C76.7769 65.8469 77.3369 65.676 77.848 65.3121C78.7245 64.6792 79.1375 63.6333 78.9682 62.586L76.8749 50.4884L85.661 41.9209C86.4395 41.1662 86.7069 40.0713 86.3667 39.0492C86.0027 38.0271 85.1505 37.2962 84.0808 37.1506ZM83.9337 40.1679L74.6844 49.1738C74.3917 49.4665 74.2699 49.8557 74.3442 50.245L76.5355 62.9739C76.5592 63.1685 76.4864 63.2665 76.3899 63.3393C76.3171 63.4121 76.1715 63.4611 76.0006 63.3631L64.5614 57.3506C64.3906 57.2526 64.196 57.205 64.0013 57.205C63.8067 57.205 63.6121 57.2541 63.4412 57.3506L52.0256 63.3631C51.8547 63.4611 51.7329 63.3869 51.6363 63.3393C51.5636 63.2903 51.4655 63.1685 51.4908 62.9739L53.6568 50.245C53.7296 49.8557 53.584 49.4412 53.3166 49.1738L44.0672 40.1679C43.9216 40.0461 43.9454 39.9005 43.9692 39.8024C43.9929 39.7044 44.0672 39.584 44.2618 39.5588L57.0398 37.6839C57.429 37.6349 57.7707 37.3675 57.9653 37.0272L63.685 25.4663C63.8558 25.1261 64.1722 25.1261 64.3416 25.4663L70.0612 37.0272C70.2321 37.3927 70.5723 37.6364 70.9868 37.6839L83.7647 39.5588C83.9594 39.5825 84.0322 39.7044 84.0574 39.8024C84.0559 39.9005 84.0808 40.0475 83.9337 40.1679Z" fill="white"/>
<path d="M81.0611 118.957H46.9617C45.1849 118.957 43.7245 120.418 43.7245 122.194V132.393C43.7245 134.17 45.1849 135.63 46.9617 135.63H81.0611C82.8379 135.63 84.2982 134.17 84.2982 132.393V122.194C84.2745 120.394 82.8379 118.957 81.0611 118.957ZM81.8395 132.393C81.8395 132.831 81.4741 133.197 81.0358 133.197H46.9615C46.5233 133.197 46.1578 132.831 46.1578 132.393V122.195C46.1578 121.756 46.5233 121.391 46.9615 121.391H81.0609C81.4992 121.391 81.8647 121.756 81.8647 122.195V132.393H81.8395Z" fill="white"/>
</svg>
