<svg width="38" height="69" viewBox="0 0 38 69" fill="none" xmlns="http://www.w3.org/2000/svg">
<path d="M32.6967 35.7677C33.673 36.7441 35.2559 36.7441 36.2322 35.7677C37.2085 34.7914 37.2085 33.2085 36.2322 32.2322L32.6967 35.7677ZM4.76777 0.767744C3.79146 -0.208567 2.20854 -0.208567 1.23223 0.767744C0.255922 1.74405 0.255922 3.32697 1.23223 4.30328L4.76777 0.767744ZM36.7678 36.3033C37.7441 35.327 37.7441 33.7441 36.7678 32.7677C35.7915 31.7914 34.2085 31.7914 33.2322 32.7677L36.7678 36.3033ZM1.76776 64.2322C0.791454 65.2085 0.791453 66.7914 1.76776 67.7677C2.74407 68.7441 4.32699 68.7441 5.3033 67.7677L1.76776 64.2322ZM36.2322 32.2322L4.76777 0.767744L1.23223 4.30328L32.6967 35.7677L36.2322 32.2322ZM33.2322 32.7677L1.76776 64.2322L5.3033 67.7677L36.7678 36.3033L33.2322 32.7677Z" fill="#9D9D9D" fill-opacity="0.3"/>
</svg>
