<svg width="38" height="69" viewBox="0 0 38 69" fill="none" xmlns="http://www.w3.org/2000/svg">
<path d="M5.3033 33.2322C4.32699 32.2559 2.74408 32.2559 1.76777 33.2322C0.791456 34.2085 0.791456 35.7915 1.76777 36.7678L5.3033 33.2322ZM33.2322 68.2322C34.2085 69.2085 35.7915 69.2085 36.7678 68.2322C37.7441 67.2559 37.7441 65.673 36.7678 64.6967L33.2322 68.2322ZM1.23223 32.6967C0.255922 33.673 0.255922 35.2559 1.23223 36.2322C2.20854 37.2085 3.79146 37.2085 4.76777 36.2322L1.23223 32.6967ZM36.2322 4.76777C37.2085 3.79146 37.2085 2.20854 36.2322 1.23223C35.2559 0.255922 33.673 0.255922 32.6967 1.23223L36.2322 4.76777ZM1.76777 36.7678L33.2322 68.2322L36.7678 64.6967L5.3033 33.2322L1.76777 36.7678ZM4.76777 36.2322L36.2322 4.76777L32.6967 1.23223L1.23223 32.6967L4.76777 36.2322Z" fill="#9D9D9D" fill-opacity="0.3"/>
</svg>
