<svg width="14" height="37" viewBox="0 0 14 37" fill="none" xmlns="http://www.w3.org/2000/svg">
<path d="M7.9 1C7.9 0.502944 7.49706 0.1 7 0.1C6.50294 0.1 6.1 0.502944 6.1 1L7.9 1ZM6.36361 36.6364C6.71508 36.9879 7.28493 36.9879 7.6364 36.6364L13.364 30.9088C13.7154 30.5574 13.7154 29.9875 13.364 29.636C13.0125 29.2846 12.4426 29.2846 12.0912 29.636L7 34.7272L1.90883 29.636C1.55736 29.2846 0.987513 29.2846 0.636041 29.636C0.284569 29.9875 0.284569 30.5574 0.636041 30.9088L6.36361 36.6364ZM6.1 1L6.1 36L7.9 36L7.9 1L6.1 1Z" fill="white"/>
</svg>
