<svg width="61" height="164" viewBox="0 0 61 164" fill="none" xmlns="http://www.w3.org/2000/svg">
<path d="M60.1521 123.616C60.1521 121.746 59.4089 119.953 58.0853 118.629C56.7632 117.307 54.9699 116.564 53.0978 116.564H41.2846L49.2199 77.0657L56.45 58.7265H43.7525C47.8583 56.3223 51.1687 52.766 53.2747 48.4986C55.3531 44.1702 56.0309 39.3007 55.2135 34.5694C54.1561 29.1034 50.805 24.871 47.4554 20.6387L45.8686 18.5224C43.047 14.8194 39.8732 11.1162 36.8758 7.76662L32.9953 3.18236L31.2325 0.888672L29.9977 3.53434L29.1162 5.29715C27.176 9.00018 24.1783 14.8194 29.1162 24.8696L30.1736 26.8098H30.1751C31.2572 28.0868 31.8244 29.7216 31.7619 31.3941C31.7182 32.6522 31.3125 33.871 30.594 34.9037C29.874 35.9363 28.8704 36.7378 27.7054 37.2133C26.6989 37.6672 25.5848 37.8257 24.4925 37.6686C23.3988 37.513 22.3734 37.049 21.5342 36.332C18.7125 33.6863 18.1846 28.2205 20.2993 21.1677C20.66 20.3706 20.4433 19.4325 19.7714 18.8755L18.89 18.1701L17.8326 18.6995C16.7752 19.2289 11.1319 24.8707 8.83981 32.6302L8.83836 32.6288C6.9112 38.4917 7.55118 44.897 10.6012 50.2625C12.6563 53.759 15.5697 56.6723 19.066 58.7258H4.9591L14.128 77.2411L20.4768 109.334H15.7149C11.5667 109.38 7.60197 111.047 4.6683 113.98C1.73612 116.914 0.0680269 120.879 0.0214844 125.027V147.245C0.0214844 151.424 1.66939 155.434 4.60723 158.405C7.54508 161.377 11.5361 163.068 15.7149 163.115H47.6316C50.4532 163.115 53.627 160.117 53.627 156.062C53.6153 154.455 53.0554 152.899 52.0402 151.654C54.3106 150.342 55.7199 147.927 55.7432 145.305C55.7243 143.615 55.0974 141.989 53.9804 140.721C55.861 139.726 57.1918 137.935 57.6035 135.847C58.0136 133.76 57.4595 131.598 56.0952 129.965C57.3024 129.398 58.3249 128.5 59.0419 127.377C59.7604 126.253 60.1444 124.95 60.1517 123.616L60.1521 123.616ZM13.5984 48.4967C8.83803 40.0335 12.1876 31.5683 15.5386 26.4546C15.0092 31.9205 16.244 36.1529 19.0657 38.7984C20.3922 39.9721 22.0241 40.743 23.7725 41.0252C25.5207 41.3059 27.3126 41.0834 28.9402 40.3852C30.6986 39.6521 32.2127 38.4348 33.3051 36.8727C34.3989 35.3121 35.0243 33.4722 35.1116 31.5698C35.2134 29.074 34.3974 26.6277 32.8194 24.6916L31.938 23.2807C28.0589 15.1693 29.8217 11.1141 31.762 7.41122L33.8782 9.87943C36.6998 13.229 39.8736 16.9319 42.6952 20.4591L44.458 22.5753C47.6316 26.6305 50.6292 30.3334 51.5105 34.9192C52.2349 38.9263 51.6792 43.0596 49.9237 46.7335C47.8148 51.3021 44.0959 54.9325 39.4792 56.9323C34.8614 58.9307 29.6688 59.1576 24.8939 57.5694C20.119 55.9811 16.0988 52.6883 13.5986 48.3204L13.5984 48.4967ZM25.5889 116.561L18.0069 78.4739H45.3389L37.5808 116.561H25.5889ZM51.1583 62.251L46.2203 74.9471H16.9495L10.6007 62.251H51.1583ZM52.9211 127.142H50.0994C49.1264 127.142 48.3366 127.932 48.3366 128.905C48.3366 129.88 49.1264 130.67 50.0994 130.67H50.9823C52.9298 130.67 54.5079 132.248 54.5079 134.195C54.5079 136.144 52.9298 137.722 50.9823 137.722H47.8072C46.8342 137.722 46.0444 138.512 46.0444 139.487C46.0444 140.46 46.8342 141.249 47.8072 141.249H48.6886C49.6253 141.249 50.5213 141.62 51.183 142.282C51.8448 142.944 52.2157 143.841 52.2157 144.776C52.2317 146.359 51.2397 147.775 49.7475 148.302H45.6908C44.7178 148.302 43.928 149.092 43.928 150.066C43.928 151.039 44.7178 151.829 45.6908 151.829H46.5737C47.5089 151.829 48.4048 152.201 49.0666 152.862C49.7283 153.523 50.0992 154.421 50.0992 155.356C50.4614 157.187 49.4026 159.001 47.631 159.588H15.7144C12.4404 159.588 9.30155 158.287 6.98634 155.973C4.67231 153.657 3.37203 150.519 3.37203 147.245V125.026C3.41711 121.813 4.71305 118.746 6.98488 116.474C9.25675 114.202 12.3257 112.905 15.5387 112.86H21.1819L21.8873 116.739H18.7122C17.7392 116.739 16.9494 117.529 16.9494 118.502C16.9494 119.476 17.7392 120.266 18.7122 120.266H52.921C54.8685 120.266 56.4481 121.844 56.4481 123.792C56.4481 125.74 54.8685 127.319 52.921 127.319L52.9211 127.142Z" fill="white"/>
</svg>
