<?xml version="1.0" encoding="UTF-8"?>
<svg width="752pt" height="752pt" version="1.1" viewBox="0 0 752 752" xmlns="http://www.w3.org/2000/svg">
 <g fill="#9b9b9b">
  <path d="m351.14 474.98c-2.8398 0-5.3516-1.8477-6.2031-4.6406-1.043-3.5039 0.94531-7.1055 4.3555-8.0508l42.668-12.598c4.0312-0.99609 5.4492-2.1797 5.9219-2.5586l-0.09375-0.56641c-0.85156-13.781 5.1641-20.793 5.8242-21.551l0.80859-0.89844 1.043-0.47266c21.875-11.227 35.422-33.387 35.422-57.918 0-35.754-29.078-64.832-64.832-64.832-35.852 0-64.93 29.078-64.93 64.832 0 24.816 14.492 47.832 36.797 58.582 3.2695 1.5625 4.6406 5.3516 3.0312 8.7148-1.5156 3.1211-5.3516 4.4961-8.5703 2.9336-26.855-12.93-44.188-40.492-44.188-70.23 0-42.812 34.902-77.809 77.855-77.809s77.809 34.949 77.809 77.809c0 28.887-15.676 55.031-41.012 68.668-0.89844 1.4688-2.4141 4.9727-2.1328 10.891 0.42578 2.1328 0.1875 4.9727-1.3242 7.8633-2.3672 4.2617-7.1055 7.293-14.207 9.0469l-42.242 12.5c-0.61328 0.19141-1.2305 0.28516-1.8008 0.28516z"/>
  <path d="m357.72 497c-2.7461 0-5.2578-1.7539-6.2031-4.5469-1.043-3.3125 0.80469-7.0078 4.2109-8.1445l38.406-12.598c3.3633-1.0898 7.0547 0.75781 8.1445 4.168s-0.75781 7.0078-4.1211 8.1445l-38.402 12.695c-0.66406 0.09375-1.375 0.28125-2.0352 0.28125z"/>
  <path d="m380.41 519.54c9.4258-3.125 14.539-13.215 11.461-22.684l-34.145 11.223c3.125 9.4258 13.305 14.539 22.684 11.461z"/>
  <path d="m376.95 277.5c-3.5977 0-6.4883-2.9375-6.4883-6.5352v-32.961c0-3.5508 2.8906-6.4883 6.4883-6.4883 3.5508 0 6.4414 2.9375 6.4414 6.4883v32.961c-0.046875 3.6484-2.8906 6.5352-6.4414 6.5352z"/>
  <path d="m503.21 372.54h-33.105c-3.5508 0-6.4883-2.9375-6.4883-6.4883 0-3.5977 2.9375-6.4883 6.4883-6.4883h33.055c3.5508 0 6.4414 2.8906 6.4414 6.4883 0 3.6016-2.8398 6.4883-6.3906 6.4883z"/>
  <path d="m281.9 370.7h-33.059c-3.5508 0-6.4883-2.9375-6.4883-6.4883 0-3.5547 2.9375-6.4414 6.4883-6.4414h33.008c3.5977 0 6.4883 2.9375 6.4883 6.4883 0 3.5508-2.8398 6.4414-6.4375 6.4414z"/>
  <path d="m310.12 304.44c-1.6562 0-3.3164-0.66406-4.5938-1.8945l-23.348-23.395c-2.5117-2.5117-2.5117-6.582 0-9.0938 2.5586-2.5117 6.6758-2.5117 9.1406 0l23.395 23.395c2.5117 2.5117 2.5117 6.582 0 9.0938-1.2305 1.2344-2.8867 1.8945-4.5938 1.8945z"/>
  <path d="m443.2 305.72c-1.6094 0-3.3164-0.66406-4.5938-1.8945-2.5586-2.5117-2.5586-6.6758 0-9.1406l23.348-23.301c2.5586-2.6055 6.6758-2.6055 9.1406 0 2.5586 2.4609 2.5586 6.582 0 9.0938l-23.301 23.348c-1.2773 1.2305-2.9375 1.8945-4.5938 1.8945z"/>
  <path d="m465.32 462.19c-1.6562 0-3.3164-0.66406-4.5938-1.9414l-23.395-23.395c-2.5117-2.5117-2.5117-6.582 0-9.0469 2.5586-2.6055 6.6758-2.6055 9.1875 0l23.301 23.301c2.5117 2.6055 2.5117 6.6758 0 9.1406-1.2344 1.3281-2.8906 1.9414-4.5 1.9414z"/>
  <path d="m285.5 460.82c-1.6562 0-3.3164-0.56641-4.5938-1.8477-2.5586-2.5117-2.5586-6.582 0-9.1406l23.348-23.301c2.5586-2.6055 6.6289-2.6055 9.0938 0 2.5586 2.5117 2.5586 6.6758 0 9.1406l-23.301 23.301c-1.3281 1.2773-2.9375 1.8477-4.5469 1.8477z"/>
  <path d="m421.37 365.16c0 25.031-20.293 45.32-45.324 45.32-25.027 0-45.32-20.289-45.32-45.32s20.293-45.32 45.32-45.32c25.031 0 45.324 20.289 45.324 45.32"/>
 </g>
</svg>