<svg width="155" height="155" viewBox="0 0 155 155" fill="none" xmlns="http://www.w3.org/2000/svg">
<path d="M152.815 145.905L116.632 109.723C139.08 83.5901 137.907 44.2239 113.282 19.4314C100.717 6.86718 83.9667 0 66.3778 0C48.7882 0 31.8689 6.8686 19.4741 19.4314C-6.49136 45.3969 -6.49136 87.4418 19.4741 113.409C32.0383 125.973 48.7889 132.84 66.3778 132.84C82.4598 132.84 97.5359 127.144 109.596 116.758L145.778 152.94C146.783 153.945 148.123 154.448 149.296 154.448C150.469 154.448 151.809 153.945 152.814 152.94C154.657 150.931 154.657 147.749 152.814 145.906L152.815 145.905ZM26.3408 106.37C4.39614 84.4249 4.39614 48.5747 26.3408 26.6297C37.0618 15.9087 51.1333 10.0461 66.209 10.0461C81.285 10.0461 95.3565 15.9087 106.077 26.6297C128.022 48.5744 128.022 84.4246 106.077 106.37C95.3561 117.091 81.2847 122.953 66.209 122.953C51.1329 122.955 37.0629 116.923 26.3408 106.37Z" fill="white"/>
<path d="M42.5874 64.8284C39.7396 64.8284 37.562 67.006 37.562 69.8537V93.6416C37.562 96.4894 39.7396 98.667 42.5874 98.667C45.4351 98.667 47.6127 96.4894 47.6127 93.6416V69.8537C47.6127 67.1732 45.4351 64.8284 42.5874 64.8284Z" fill="white"/>
<path d="M66.2089 42.7136C63.3612 42.7136 61.1836 44.8912 61.1836 47.739V93.8044C61.1836 96.6521 63.3612 98.8297 66.2089 98.8297C69.0567 98.8297 71.2343 96.6521 71.2343 93.8044V47.739C71.2343 44.8912 69.0567 42.7136 66.2089 42.7136Z" fill="white"/>
<path d="M89.8271 24.1218C86.9793 24.1218 84.8018 26.2994 84.8018 29.1472V93.8078C84.8018 96.6556 86.9793 98.8332 89.8271 98.8332C92.6749 98.8332 94.8524 96.6556 94.8524 93.8078V29.1472C94.8524 26.2994 92.6749 24.1218 89.8271 24.1218Z" fill="white"/>
</svg>
