<svg width="144" height="145" viewBox="0 0 144 145" fill="none" xmlns="http://www.w3.org/2000/svg">
<path fill-rule="evenodd" clip-rule="evenodd" d="M20.0671 52.2653C20.0671 51.1858 20.9434 50.3091 22.0252 50.3091H80.683C81.7636 50.3091 82.6411 51.1845 82.6411 52.2653C82.6411 53.3449 81.7635 54.2216 80.683 54.2216H22.0252C20.9434 54.2216 20.0671 53.3448 20.0671 52.2653ZM52.0986 66.807H22.0251C20.9445 66.807 20.067 67.6825 20.067 68.7633C20.067 69.8428 20.9432 70.7195 22.0251 70.7195H52.0973C53.1779 70.7195 54.0554 69.8428 54.0554 68.7633C54.0554 67.6812 53.1792 66.807 52.0986 66.807ZM52.0986 83.3035H22.0251C20.9445 83.3035 20.067 84.1803 20.067 85.2598C20.067 86.3393 20.9432 87.216 22.0251 87.216H52.0973C53.1779 87.216 54.0554 86.3393 54.0554 85.2598C54.0554 84.1802 53.1792 83.3035 52.0986 83.3035ZM52.0986 99.8H22.0251C20.9445 99.8 20.067 100.677 20.067 101.756C20.067 102.836 20.9432 103.712 22.0251 103.712H52.0973C53.1779 103.712 54.0554 102.836 54.0554 101.756C54.0554 100.677 53.1792 99.8 52.0986 99.8ZM143.566 98.4144C144.092 97.2668 144.141 95.987 143.705 94.8078L134.584 70.2759C134.147 69.0969 133.272 68.1597 132.126 67.6331C130.977 67.1066 129.696 67.0587 128.516 67.4946L122.411 69.7594C121.232 70.1965 120.291 71.0707 119.765 72.217C119.336 73.1542 119.242 74.1796 119.455 75.1684C118.484 75.2087 117.255 74.7641 115.311 73.9516C115.061 73.847 114.804 73.74 114.543 73.6316V12.7517C114.543 5.72006 108.818 0 101.78 0H24.5977C18.8723 0 13.8754 3.88744 12.3335 9.27502C5.49588 9.50428 0 15.1186 0 22.0054V132.014C0 139.046 5.72537 144.766 12.7635 144.766H89.9421C95.7733 144.766 100.69 140.837 102.211 135.491C109.048 135.26 114.54 129.646 114.54 122.76V117.176C114.892 116.793 115.213 116.381 115.465 115.911C115.9 115.098 116.145 114.218 116.197 113.322C118.851 113.838 121.639 112.603 122.979 110.105C123.434 109.257 123.671 108.35 123.716 107.448C125.513 107.797 127.195 107.265 128.443 105.898C129.352 104.901 129.873 103.58 130.024 102.199C130.376 102.516 130.764 102.798 131.21 103C131.839 103.29 132.509 103.434 133.179 103.434C133.731 103.434 134.287 103.336 134.819 103.138L140.924 100.873C142.101 100.435 143.039 99.5607 143.566 98.4144ZM113.796 77.5606C115.552 78.295 117.453 79.0911 119.383 79.0911C119.845 79.0911 120.311 79.0256 120.776 78.9223L126.91 95.4175C124.541 93.494 120.86 91.5933 116.492 89.4379C114.957 88.6808 113.505 87.9653 112.519 87.4035C108.932 84.6738 104.882 86.1993 101.302 87.5471C96.9069 89.1985 94.1191 90.0476 91.4424 87.2612C92.3464 86.1363 94.0283 84.4874 95.4467 83.0954C96.144 82.4114 96.8576 81.7098 97.5536 81.0082C98.7097 79.8417 99.8659 78.8604 100.989 78.0845C106.296 74.425 110.108 76.0188 113.796 77.5606ZM16.4791 9.25399H89.9394C96.9775 9.25399 102.703 14.9741 102.703 22.0056V72.7793C105.671 71.6834 108.306 71.7816 110.621 72.3207L110.622 12.7532C110.622 7.88092 106.654 3.91416 101.775 3.91416L24.593 3.91542C21.0199 3.91542 17.8538 6.0959 16.4769 9.25399H16.4791ZM61.9323 31.7592V13.1679H84.1269V31.0059L74.6831 24.6457C74.0212 24.1998 73.1563 24.1998 72.4943 24.6457L61.9323 31.7592ZM98.7899 132.013V127.228C98.3789 127.329 97.9665 127.385 97.5543 127.385C96.5973 127.385 95.6542 127.129 94.817 126.679C93.4427 125.945 92.2966 124.669 91.6838 123.183C91.6435 123.195 91.6044 123.208 91.564 123.219C89.9955 123.693 88.34 123.533 86.9002 122.763C85.8298 122.231 84.9522 121.351 84.3824 120.247C84.1088 120.375 83.8238 120.485 83.5288 120.574C81.9603 121.048 80.3023 120.888 78.865 120.118C77.4945 119.434 76.4379 118.182 75.9399 116.616C75.6738 115.777 75.5881 114.899 75.6789 114.045C74.7875 114.009 73.8897 113.775 73.05 113.327C71.6795 112.645 70.6255 111.392 70.1262 109.828C69.6168 108.229 69.7681 106.487 70.5384 105.047L71.242 103.732C70.836 103.846 70.4199 103.916 70.0013 103.916C69.5159 103.916 69.0267 103.839 68.5513 103.686L62.3557 101.69C59.8781 100.892 58.514 98.2278 59.3133 95.7538L67.3562 70.8465C67.7432 69.6498 68.5741 68.6748 69.7001 68.0992C70.8247 67.5248 72.1032 67.4215 73.2996 67.8069L79.4966 69.8048C81.0852 70.3174 82.2086 71.601 82.6033 73.1075C84.0406 73.1579 85.4742 72.8758 87.0718 72.5571C90.4154 71.8932 94.1463 71.1576 98.7875 73.4477L98.7888 22.0065C98.7888 17.1329 94.8209 13.1675 89.9415 13.1675H88.044V34.6827C88.044 35.407 87.6455 36.0696 87.0063 36.4097C86.3658 36.7498 85.5942 36.7082 84.9915 36.3051L73.5885 28.6264L61.9209 36.4854C61.5981 36.7033 61.2173 36.8192 60.8265 36.8192H59.9741C58.8936 36.8192 58.0161 35.9438 58.0161 34.863L58.0173 13.1691H12.7643C7.88754 13.1691 3.91709 17.1346 3.91709 22.0081V132.017C3.91709 136.891 7.88625 140.856 12.7643 140.856H89.943C94.8198 140.856 98.7889 136.892 98.7889 132.016L98.7899 132.013ZM104.583 117.232L105.709 117.837C107.05 118.759 106.637 119.875 106.458 120.215C106.299 120.519 105.675 121.464 104.457 120.837L104.258 120.734C104.634 119.711 104.882 118.475 104.583 117.232ZM102.645 124.308H102.445C102.461 124.281 102.476 124.255 102.493 124.228L102.645 124.308ZM96.3313 118.125C96.6289 117.574 97.161 117.128 97.7952 116.903C98.1444 116.781 98.824 116.621 99.4595 116.963C100.938 117.754 101.339 118.127 99.9512 120.721C99.9512 120.723 99.9499 120.725 99.9499 120.726L99.2161 122.098C98.1759 124.037 97.0374 123.433 96.6655 123.231C95.6707 122.699 94.6771 121.22 95.3201 120.016L96.3301 118.129L96.3313 118.125ZM93.1074 111.171C94.1816 111.745 94.5876 113.084 94.0152 114.159L92.8766 116.285H92.8754C92.8741 116.289 92.8716 116.293 92.8703 116.296L91.873 118.161C91.8718 118.162 91.8692 118.164 91.868 118.167L91.7356 118.414C91.4582 118.929 90.993 119.308 90.4268 119.48C89.8595 119.651 89.2618 119.594 88.6982 119.293C88.0703 118.979 87.8081 118.401 87.706 118.083C87.5168 117.488 87.5647 116.849 87.8396 116.334V116.333L90.1154 112.084C90.1167 112.083 90.1167 112.08 90.1192 112.079C90.6954 111.003 92.0394 110.6 93.1074 111.171ZM87.3907 107.5C87.5622 108.067 87.5055 108.663 87.2281 109.18L86.6657 110.232C86.6657 110.233 86.6657 110.236 86.6645 110.237L84.3937 114.48C84.3924 114.481 84.3899 114.484 84.3899 114.485L83.704 115.767C83.1291 116.837 81.79 117.246 80.6654 116.646C80.0375 116.333 79.774 115.752 79.6731 115.435C79.484 114.837 79.5319 114.2 79.8067 113.685L81.3374 110.827L83.3295 107.104C83.3308 107.103 83.3308 107.101 83.3333 107.099C83.9082 106.027 85.2511 105.621 86.3215 106.194C86.8397 106.47 87.218 106.933 87.3907 107.5ZM79.4763 101.103C81.3776 102.459 80.7006 103.72 80.4774 104.139L79.8797 105.251V105.253V105.254L77.8914 108.97C77.8901 108.974 77.8863 108.976 77.8851 108.98C77.3102 110.051 75.9699 110.458 74.8515 109.858C74.2224 109.544 73.9601 108.964 73.858 108.647C73.6689 108.049 73.7168 107.412 73.9916 106.898L75.743 103.624V103.623L76.5802 102.059C76.8575 101.544 77.3203 101.165 77.8889 100.994C78.4248 100.83 78.9858 100.872 79.4763 101.103ZM78.8131 74.541L72.3915 94.4273C72.3675 94.4827 72.3373 94.5369 72.3171 94.5961C72.2616 94.77 72.2187 94.945 72.167 95.1176L70.7688 99.4498C70.6818 99.7218 70.48 99.8591 70.3691 99.9158C70.2581 99.9712 70.0287 100.056 69.7563 99.9662L63.5594 97.9696C63.1433 97.8361 62.9063 97.3725 63.0399 96.9581L71.0841 72.0508C71.1711 71.7787 71.3728 71.6415 71.4838 71.5848C71.562 71.5445 71.6918 71.4941 71.857 71.4941C71.9314 71.4941 72.0108 71.5054 72.0978 71.5319L78.2948 73.5297C78.7096 73.6632 78.9467 74.1265 78.8131 74.541ZM110.624 122.76C110.624 127.322 107.149 131.087 102.706 131.552V124.338C103.529 124.753 104.388 124.954 105.224 124.954C107.144 124.954 108.945 123.908 109.928 122.036C110.383 121.171 110.618 120.183 110.584 119.186C110.598 119.184 110.613 119.178 110.627 119.176L110.625 122.761L110.624 122.76ZM125.706 99.7236C126.445 100.842 126.232 102.514 125.55 103.262C125.37 103.46 124.892 103.975 123.602 103.289L120.387 101.57C120.355 101.553 120.321 101.545 120.291 101.53L109.946 95.9207C108.995 95.408 107.807 95.7582 107.291 96.7067C106.775 97.6565 107.127 98.8431 108.077 99.3596L118.651 105.091C119.731 105.746 120.13 107.137 119.528 108.261C118.905 109.425 117.449 109.866 116.281 109.246L113.09 107.541C113.03 107.499 112.974 107.454 112.909 107.419L105.21 103.306C104.263 102.793 103.07 103.155 102.561 104.109C102.052 105.062 102.411 106.247 103.365 106.756L110.869 110.763C110.929 110.805 110.986 110.853 111.053 110.888L111.058 110.892C111.604 111.186 112.005 111.679 112.189 112.28C112.37 112.884 112.31 113.518 112.015 114.067C111.722 114.616 111.227 115.018 110.625 115.203C110.02 115.385 109.386 115.324 108.836 115.032L107.215 114.165C107.211 114.164 107.21 114.164 107.208 114.164C107.101 114.108 106.991 114.063 106.881 114.027L100.386 110.543C99.4996 110.071 98.4191 110.35 97.8593 111.155C97.3764 109.736 96.3854 108.487 94.9593 107.725C93.7981 107.106 92.5234 106.897 91.3081 107.053C91.2665 106.824 91.211 106.597 91.1429 106.37C90.6689 104.803 89.6148 103.516 88.1762 102.748C87.0351 102.138 85.7844 101.926 84.5892 102.065C84.2866 100.482 83.2943 99.0029 81.6779 97.8691C81.5985 97.8086 81.514 97.7545 81.4245 97.7066C79.9846 96.9369 78.3292 96.7707 76.7607 97.2506C76.3548 97.3728 75.9677 97.5353 75.6046 97.7305C75.6726 97.2329 75.7874 96.7367 75.9248 96.2466L82.1408 76.9988C84.1657 77.121 86.028 76.7582 87.841 76.3991C90.7233 75.826 93.2852 75.3171 96.4552 76.6763C95.8941 77.1675 95.3343 77.6941 94.777 78.2571C94.0949 78.9449 93.3939 79.6327 92.7105 80.3041C89.7349 83.2253 87.8764 85.0958 87.2247 86.6817C86.9649 87.3166 87.0545 88.0409 87.4655 88.5926C92.3158 95.1076 98.3123 92.8567 102.691 91.209C106.193 89.8901 108.428 89.1532 110.22 90.5678C110.294 90.6245 110.371 90.6786 110.454 90.7252C111.551 91.3614 113.04 92.097 114.766 92.946C118.584 94.833 124.366 97.6879 125.706 99.7236ZM140.035 96.17C140.133 96.437 140.061 96.6701 140.009 96.7834C139.957 96.898 139.828 97.1034 139.561 97.2029L133.456 99.4678C133.188 99.566 132.954 99.493 132.842 99.4426C132.727 99.3897 132.52 99.2612 132.422 98.9929L123.301 74.4596C123.202 74.1926 123.274 73.9596 123.326 73.8462C123.379 73.7316 123.508 73.525 123.776 73.4267L129.881 71.1619C129.978 71.1266 130.069 71.1127 130.155 71.1127C130.301 71.1127 130.422 71.1543 130.495 71.187C130.61 71.24 130.817 71.3672 130.915 71.6355L140.035 96.17Z" fill="white"/>
</svg>
