<?xml version="1.0" encoding="UTF-8"?>
<svg width="752pt" height="752pt" version="1.1" viewBox="0 0 752 752" xmlns="http://www.w3.org/2000/svg">
 <defs>
  <clipPath id="b">
   <path d="m139.21 261h321.79v239h-321.79z"/>
  </clipPath>
  <clipPath id="a">
   <path d="m333 252h279.79v187h-279.79z"/>
  </clipPath>
 </defs>
 <g>
  <g clip-path="url(#b)">
   <path d="m383.73 329.63c-2.9531-2.8242-7.6367-2.7188-10.465 0.23438-2.8242 2.9531-2.7188 7.6367 0.23438 10.461l69.332 66.371h-0.003906c3.7734 3.6172 3.918 9.6016 0.32812 13.398-3.5 3.7344-9.3594 3.9336-13.102 0.44531l-34.75-33.27c-2.9531-2.8242-7.6406-2.7227-10.465 0.23047-2.8242 2.9531-2.7227 7.6367 0.23437 10.465l34.777 33.289c3.1367 2.6445 5.1758 6.3672 5.7109 10.438-0.070313 2.0273-1.0117 3.9258-2.582 5.2109-2.082 1.9727-6.9062 6.6875-16.301-2.1719l-4.875-4.3125-29.746-30.426c-1.3633-1.4336-3.2461-2.2617-5.2227-2.2969-1.9805-0.035156-3.8906 0.72266-5.3086 2.1055-1.4141 1.3828-2.2148 3.2734-2.2266 5.2539-0.011719 1.9766 0.76953 3.8789 2.1719 5.2773l29.992 30.695h0.058593v-0.003906c3.6406 3.6406 3.7422 9.5078 0.22656 13.27-3.5664 3.7422-9.4844 3.9023-13.25 0.35547l-3.9453-3.75v0.003906c-0.80469-1.0938-1.6914-2.1211-2.6523-3.0781-0.17578-0.15625-0.39453-0.21875-0.58203-0.36328l-24.125-25.035c-1.3438-1.4805-3.2305-2.3555-5.2305-2.4219-2-0.070312-3.9414 0.67578-5.3828 2.0625-1.4414 1.3906-2.2578 3.3008-2.2656 5.3008-0.007812 2.0039 0.79297 3.9219 2.2227 5.3203l24.902 25.859c0.15234 0.11719 0.3125 0.22656 0.47656 0.32422 0.25391 0.47656 0.55859 0.91797 0.91406 1.3242l0.24609 0.23828 0.003906-0.003906c2.7891 3.4609 2.7695 8.4062-0.050781 11.84-1.7617 1.7266-4.1367 2.6758-6.6016 2.6445-2.9375 0.19141-5.8242-0.85156-7.9609-2.8789-16.629-16.648-34.398-32.113-53.18-46.285-11.93-8.8555-21.363-20.648-27.379-34.234-1.1445-2.7656-3.8438-4.5742-6.8359-4.5781h-18.797l-0.058594-88.164h24.27c1.0039 0 1.9922-0.20703 2.9102-0.60156l22.328-9.5508 9.0586-3.8672c4.0469-1.7305 8.5898-1.9219 12.766-0.53516 3.8438 1.1758 7.918-0.92969 9.1836-4.7422 1.2695-3.8125-0.73828-7.9375-4.5156-9.2969-7.6133-2.5195-15.883-2.168-23.254 0.98828l-9.5117 4.0664-20.512 8.7812-22.742-0.003906v-14c0-1.9609-0.78125-3.8438-2.168-5.2266-1.3867-1.3867-3.2695-2.1641-5.2305-2.1641h-27.883v-3.7188c0-4.0859-3.3125-7.3984-7.4023-7.3984h-52.902c-4.0859 0-7.3984 3.3125-7.3984 7.3984 0 4.0859 3.3125 7.4023 7.3984 7.4023h45.496v3.207c0 0.17578-0.097657 0.33594-0.097657 0.52344s0.089844 0.34375 0.097657 0.52344v89.883-0.003906c0 4.0859 3.3125 7.3984 7.3984 7.3984 4.0859 0 7.3984-3.3125 7.3984-7.3984v-82.996h20.492l0.078125 124.73h-20.598v-19.508c-0.003906-1.957-0.78516-3.8359-2.1719-5.2227-1.3867-1.3828-3.2695-2.1602-5.2305-2.1562-1.9609 0-3.8477 0.78125-5.2344 2.1719s-2.168 3.2734-2.1641 5.2383l0.058593 30.586h-45.484c-4.0859 0-7.3984 3.3125-7.3984 7.3984 0 4.0859 3.3125 7.3984 7.3984 7.3984h52.895c1.9648 0.007813 3.8516-0.77344 5.2422-2.1641 1.3906-1.3906 2.1641-3.2773 2.1562-5.2422v-3.7188h27.992v-0.003906c1.9609 0 3.8438-0.77734 5.2305-2.168 1.3828-1.3867 2.1602-3.2695 2.1602-5.2305v-7.8047h14.07c7.082 14.469 17.648 26.953 30.742 36.34 17.988 13.699 35.043 28.59 51.047 44.562v0.050781c4.8555 4.5312 11.258 7.0273 17.898 6.9844h0.64062c6.3984-0.039063 12.516-2.6445 16.98-7.2305 2.8984-3.0938 4.8633-6.9414 5.6719-11.102 1.8164 0.44922 3.6758 0.6875 5.5469 0.71094 5.4961 0.039062 10.84-1.8047 15.145-5.2305 4.3008-3.4219 7.2969-8.2188 8.4922-13.582 4.2305 1.5898 8.8359 1.8945 13.242 0.875 4.4023-1.0195 8.4023-3.3203 11.504-6.6094 4.4258-4.0664 6.9844-9.7734 7.0742-15.785 0-1.4336-0.13281-2.8633-0.40625-4.2734 5.3164-0.76562 10.219-3.2969 13.922-7.1797 4.418-4.668 6.8086-10.891 6.6562-17.316-0.15234-6.4219-2.832-12.527-7.4648-16.98z" fill="#9b9b9b"/>
  </g>
  <g clip-path="url(#a)">
   <path d="m605.39 423.36h-45.484l0.058594-93.543h0.003906c0-4.0859-3.3125-7.4023-7.4023-7.4102-4.0859 0-7.3984 3.3164-7.3984 7.4023l-0.058594 82.414-20.582-0.003906 0.078125-124.73h20.492v17.645c0 4.0859 3.3164 7.3984 7.4023 7.3984s7.3984-3.3125 7.3984-7.3984v-24.559c0-0.17578 0.097656-0.33594 0.097656-0.52344s-0.089844-0.34375-0.097656-0.52344v-3.1758h45.492c4.0898 0 7.4023-3.3125 7.4023-7.3984s-3.3125-7.4023-7.4023-7.4023h-52.891c-4.0859 0-7.4023 3.3164-7.4023 7.4023v3.7188h-27.883 0.003906c-1.9648-0.003906-3.8438 0.77344-5.2344 2.1602-1.3867 1.3867-2.168 3.2695-2.168 5.2305v11.031l-19.09-1.0742-57.965-36.504v-0.003906c-1.7578-1.125-3.9102-1.4492-5.918-0.88672l-88.336 23.727-0.11719 0.058594h-0.078125c-0.34375 0.14453-0.67188 0.31641-0.98828 0.51562-0.55078 0.21484-1.0781 0.49219-1.5664 0.82812-0.28906 0.28906-0.55469 0.60156-0.80078 0.92578-0.37109 0.37109-0.70312 0.78125-0.98438 1.2227-0.17969 0.40625-0.32812 0.82422-0.4375 1.2539-0.19531 0.46094-0.34375 0.94141-0.44141 1.4297-0.011719 0.44531 0.011719 0.89453 0.078125 1.332-0.019531 0.50391 0.011719 1.0078 0.097656 1.5v0.17578c0.32422 1.0938 8.1484 26.641 28.098 32.164l0.003906 0.003907c13.562 2.3789 27.504 1.3164 40.551-3.0898 7.5234 9.6602 17.566 17.059 29.023 21.383 6.1172 2.3359 12.613 3.5352 19.16 3.5312 4.8398 0.0625 9.6602-0.62891 14.289-2.043 3.8555-1.3633 5.8789-5.5938 4.5156-9.4531-1.3594-3.8555-5.5938-5.8789-9.4492-4.5195-7.707 2.0352-15.859 1.5625-23.273-1.3516-10.18-3.7148-18.871-10.641-24.766-19.73-1.7344-3.2461-5.5859-4.7305-9.0469-3.4844-11.82 4.5117-24.562 6.0664-37.117 4.5312-6.7539-2.8555-12.105-8.2617-14.891-15.047l77.145-20.789 56.84 35.824c1.0703 0.66797 2.2852 1.0586 3.543 1.1367l21.824 1.2344-0.058594 84.297-20.355-1.9023v-0.003906c-2.5781-0.25781-5.1016 0.86719-6.6289 2.9609-3.7695 4.8633-7.9414 9.4062-12.473 13.574-1.4688 1.3164-2.3555 3.168-2.4531 5.1406-0.10156 1.9727 0.58984 3.9023 1.9219 5.3633 1.332 1.457 3.1914 2.3242 5.1641 2.4062 1.9727 0.078125 3.8984-0.63281 5.3438-1.9766 4.1836-3.8516 8.1016-7.9766 11.73-12.355l17.758 1.668v14.504c0 1.9609 0.77734 3.8438 2.1641 5.2305 1.3828 1.3906 3.2656 2.168 5.2266 2.168h27.992v3.7305c-0.003906 1.9648 0.77734 3.8477 2.1641 5.2344 1.3867 1.3906 3.2734 2.168 5.2344 2.168h52.895c4.0859 0 7.3984-3.3164 7.3984-7.4023 0-4.0859-3.3125-7.3984-7.3984-7.3984z" fill="#9b9b9b"/>
  </g>
 </g>
</svg>