<svg width="219" height="59" viewBox="0 0 219 59" fill="none" xmlns="http://www.w3.org/2000/svg">
<path d="M43.156 33.18C41.668 33.18 40.48 32.64 39.592 31.56C38.704 30.48 38.26 29.064 38.26 27.312C38.26 25.392 38.704 23.58 39.592 21.876C40.48 20.148 41.656 18.768 43.12 17.736C44.608 16.68 46.18 16.152 47.836 16.152C48.364 16.152 48.712 16.26 48.88 16.476C49.072 16.668 49.228 17.028 49.348 17.556C49.852 17.46 50.38 17.412 50.932 17.412C52.108 17.412 52.696 17.832 52.696 18.672C52.696 19.176 52.516 20.376 52.156 22.272C51.604 25.032 51.328 26.952 51.328 28.032C51.328 28.392 51.412 28.68 51.58 28.896C51.772 29.112 52.012 29.22 52.3 29.22C52.756 29.22 53.308 28.932 53.956 28.356C54.604 27.756 55.48 26.796 56.584 25.476C56.872 25.14 57.196 24.972 57.556 24.972C57.868 24.972 58.108 25.116 58.276 25.404C58.468 25.692 58.564 26.088 58.564 26.592C58.564 27.552 58.336 28.296 57.88 28.824C56.896 30.048 55.852 31.08 54.748 31.92C53.644 32.76 52.576 33.18 51.544 33.18C50.752 33.18 50.02 32.916 49.348 32.388C48.7 31.836 48.208 31.092 47.872 30.156C46.624 32.172 45.052 33.18 43.156 33.18ZM44.452 29.544C44.98 29.544 45.484 29.232 45.964 28.608C46.444 27.984 46.792 27.156 47.008 26.124L48.34 19.5C47.332 19.524 46.396 19.908 45.532 20.652C44.692 21.372 44.02 22.332 43.516 23.532C43.012 24.732 42.76 26.004 42.76 27.348C42.76 28.092 42.904 28.644 43.192 29.004C43.504 29.364 43.924 29.544 44.452 29.544Z" fill="#F05C5C"/>
<path d="M74.0701 25.044C74.3821 25.044 74.6221 25.2 74.7901 25.512C74.9821 25.8 75.0781 26.172 75.0781 26.628C75.0781 27.18 74.9941 27.612 74.8261 27.924C74.6581 28.236 74.3941 28.512 74.0341 28.752L67.1221 33.396C66.2101 38.364 65.0101 42.264 63.5221 45.096C62.0581 47.952 60.1861 49.38 57.9061 49.38C56.6821 49.38 55.6861 48.996 54.9181 48.228C54.1501 47.484 53.7661 46.5 53.7661 45.276C53.7661 44.148 54.0181 42.996 54.5221 41.82C55.0501 40.644 56.0101 39.288 57.4021 37.752C58.8181 36.24 60.8101 34.5 63.3781 32.532L63.4861 31.704C63.6541 30.816 63.8461 29.544 64.0621 27.888C63.5821 29.616 62.9101 30.936 62.0461 31.848C61.1821 32.736 60.2701 33.18 59.3101 33.18C58.2301 33.18 57.3421 32.688 56.6461 31.704C55.9741 30.696 55.6381 29.448 55.6381 27.96C55.6381 26.16 55.7581 24.516 55.9981 23.028C56.2381 21.516 56.6341 19.92 57.1861 18.24C57.4261 17.52 57.7621 17.004 58.1941 16.692C58.6261 16.38 59.3101 16.224 60.2461 16.224C60.7741 16.224 61.1341 16.308 61.3261 16.476C61.5421 16.644 61.6501 16.896 61.6501 17.232C61.6501 17.424 61.5181 18.072 61.2541 19.176C61.0141 20.064 60.8221 20.868 60.6781 21.588C60.4861 22.572 60.3181 23.52 60.1741 24.432C60.0301 25.32 59.9581 26.052 59.9581 26.628C59.9581 27.54 60.2101 27.996 60.7141 27.996C61.0741 27.996 61.5181 27.636 62.0461 26.916C62.5981 26.196 63.1741 25.104 63.7741 23.64C64.3981 22.176 64.9981 20.376 65.5741 18.24C65.7661 17.52 66.0541 17.004 66.4381 16.692C66.8461 16.38 67.4461 16.224 68.2381 16.224C68.7901 16.224 69.1741 16.296 69.3901 16.44C69.6061 16.584 69.7141 16.824 69.7141 17.16C69.7141 17.76 69.4021 19.824 68.7781 23.352L67.8421 29.148C69.6901 27.756 71.4901 26.484 73.2421 25.332C73.5541 25.14 73.8301 25.044 74.0701 25.044ZM58.3021 45.888C58.9021 45.888 59.5741 45.192 60.3181 43.8C61.0621 42.408 61.8061 40.092 62.5501 36.852C60.7021 38.412 59.3581 39.828 58.5181 41.1C57.7021 42.396 57.2941 43.524 57.2941 44.484C57.2941 44.892 57.3661 45.228 57.5101 45.492C57.6781 45.756 57.9421 45.888 58.3021 45.888Z" fill="#F05C5C"/>
<path d="M76.9411 33.18C75.4531 33.18 74.2651 32.64 73.3771 31.56C72.4891 30.48 72.0451 29.064 72.0451 27.312C72.0451 25.392 72.4891 23.58 73.3771 21.876C74.2651 20.148 75.4411 18.768 76.9051 17.736C78.3931 16.68 79.9651 16.152 81.6211 16.152C82.1491 16.152 82.4971 16.26 82.6651 16.476C82.8571 16.668 83.0131 17.028 83.1331 17.556C83.6371 17.46 84.1651 17.412 84.7171 17.412C85.8931 17.412 86.4811 17.832 86.4811 18.672C86.4811 19.176 86.3011 20.376 85.9411 22.272C85.3891 25.032 85.1131 26.952 85.1131 28.032C85.1131 28.392 85.1971 28.68 85.3651 28.896C85.5571 29.112 85.7971 29.22 86.0851 29.22C86.5411 29.22 87.0931 28.932 87.7411 28.356C88.3891 27.756 89.2651 26.796 90.3691 25.476C90.6571 25.14 90.9811 24.972 91.3411 24.972C91.6531 24.972 91.8931 25.116 92.0611 25.404C92.2531 25.692 92.3491 26.088 92.3491 26.592C92.3491 27.552 92.1211 28.296 91.6651 28.824C90.6811 30.048 89.6371 31.08 88.5331 31.92C87.4291 32.76 86.3611 33.18 85.3291 33.18C84.5371 33.18 83.8051 32.916 83.1331 32.388C82.4851 31.836 81.9931 31.092 81.6571 30.156C80.4091 32.172 78.8371 33.18 76.9411 33.18ZM78.2371 29.544C78.7651 29.544 79.2691 29.232 79.7491 28.608C80.2291 27.984 80.5771 27.156 80.7931 26.124L82.1251 19.5C81.1171 19.524 80.1811 19.908 79.3171 20.652C78.4771 21.372 77.8051 22.332 77.3011 23.532C76.7971 24.732 76.5451 26.004 76.5451 27.348C76.5451 28.092 76.6891 28.644 76.9771 29.004C77.2891 29.364 77.7091 29.544 78.2371 29.544Z" fill="#F05C5C"/>
<path d="M91.9793 33.18C91.0673 33.18 90.4193 32.7 90.0353 31.74C89.6753 30.78 89.4953 29.244 89.4953 27.132C89.4953 24.012 89.9393 21.048 90.8273 18.24C91.0433 17.544 91.3913 17.04 91.8713 16.728C92.3753 16.392 93.0713 16.224 93.9593 16.224C94.4393 16.224 94.7753 16.284 94.9673 16.404C95.1593 16.524 95.2553 16.752 95.2553 17.088C95.2553 17.472 95.0753 18.336 94.7153 19.68C94.4753 20.64 94.2833 21.48 94.1393 22.2C93.9953 22.92 93.8753 23.808 93.7793 24.864C94.5713 22.8 95.4593 21.12 96.4433 19.824C97.4273 18.528 98.3873 17.604 99.3233 17.052C100.283 16.5 101.159 16.224 101.951 16.224C102.719 16.224 103.295 16.428 103.679 16.836C104.087 17.22 104.291 17.796 104.291 18.564C104.291 19.188 104.159 20.364 103.895 22.092C103.655 23.556 103.463 24.948 103.319 26.268C103.175 27.564 103.103 29.016 103.103 30.624C103.103 31.536 102.911 32.196 102.527 32.604C102.167 32.988 101.567 33.18 100.727 33.18C99.9353 33.18 99.3593 32.976 98.9993 32.568C98.6393 32.16 98.4593 31.548 98.4593 30.732C98.4593 29.772 98.6273 28.188 98.9633 25.98C99.2513 24.06 99.3953 22.836 99.3953 22.308C99.3953 21.924 99.2633 21.732 98.9993 21.732C98.6873 21.732 98.2433 22.14 97.6673 22.956C97.1153 23.748 96.5393 24.804 95.9393 26.124C95.3633 27.444 94.8953 28.836 94.5353 30.3C94.2713 31.428 93.9593 32.196 93.5993 32.604C93.2633 32.988 92.7233 33.18 91.9793 33.18Z" fill="#F05C5C"/>
<path d="M41.664 11.28C41.664 14 40.704 16.352 38.784 18.336C36.864 20.288 34.064 21.696 30.384 22.56C32.368 23.104 33.872 24 34.896 25.248C35.92 26.464 36.432 27.872 36.432 29.472C36.432 32 35.632 34.192 34.032 36.048C32.464 37.904 30.16 39.344 27.12 40.368C24.08 41.36 20.416 41.856 16.128 41.856C14.528 41.856 13.248 41.808 12.288 41.712C12.256 42.608 11.872 43.28 11.136 43.728C10.4 44.176 9.45596 44.4 8.30396 44.4C7.15196 44.4 6.35196 44.144 5.90396 43.632C5.48796 43.12 5.31196 42.368 5.37596 41.376C5.66396 36.896 6.22396 32.208 7.05596 27.312C7.88796 22.384 8.94396 17.632 10.224 13.056C10.448 12.256 10.896 11.696 11.568 11.376C12.24 11.056 13.12 10.896 14.208 10.896C16.16 10.896 17.136 11.44 17.136 12.528C17.136 12.976 17.04 13.488 16.848 14.064C16.016 16.56 15.184 19.952 14.352 24.24C13.52 28.496 12.928 32.56 12.576 36.432C14.112 36.56 15.36 36.624 16.32 36.624C20.8 36.624 24.08 35.984 26.16 34.704C28.272 33.392 29.328 31.728 29.328 29.712C29.328 28.304 28.72 27.12 27.504 26.16C26.32 25.2 24.32 24.672 21.504 24.576C20.864 24.544 20.416 24.384 20.16 24.096C19.904 23.808 19.776 23.344 19.776 22.704C19.776 21.776 19.968 21.024 20.352 20.448C20.736 19.872 21.44 19.568 22.464 19.536C24.736 19.472 26.784 19.136 28.608 18.528C30.464 17.92 31.92 17.072 32.976 15.984C34.032 14.864 34.56 13.568 34.56 12.096C34.56 10.24 33.648 8.78402 31.824 7.72802C30 6.64002 27.2 6.09602 23.424 6.09602C20 6.09602 16.688 6.54402 13.488 7.44002C10.288 8.30402 7.56796 9.40802 5.32796 10.752C4.30396 11.36 3.43996 11.664 2.73596 11.664C2.15996 11.664 1.71196 11.472 1.39196 11.088C1.10396 10.672 0.959961 10.16 0.959961 9.55202C0.959961 8.75202 1.11996 8.06402 1.43996 7.48802C1.79196 6.91202 2.60796 6.25602 3.88796 5.52002C6.57596 3.98402 9.72796 2.78402 13.344 1.92002C16.96 1.05602 20.656 0.624023 24.432 0.624023C30.224 0.624023 34.544 1.60002 37.392 3.55202C40.24 5.50402 41.664 8.08002 41.664 11.28Z" fill="#F05C5C"/>
<path d="M128.726 39L124.159 27.1353H110.068L105.41 39H103L116.196 5.33352H118.353L131.205 39H128.726ZM123.402 25.001L118.766 12.4248C118.644 12.1035 118.491 11.6905 118.307 11.1856C118.139 10.6807 117.955 10.1452 117.756 9.57913C117.573 9.01305 117.389 8.47756 117.206 7.97268C117.053 8.50816 116.884 9.04365 116.701 9.57913C116.517 10.1146 116.341 10.6348 116.173 11.1397C116.005 11.6293 115.844 12.0729 115.691 12.4707L110.872 25.001H123.402Z" fill="#6FB2F1"/>
<path d="M137.668 17.3789C136.723 17.3789 135.871 17.543 135.113 17.8711C134.363 18.1914 133.723 18.6602 133.191 19.2774C132.668 19.8867 132.266 20.625 131.984 21.4922C131.703 22.3594 131.562 23.336 131.562 24.4219C131.562 25.8594 131.785 27.1094 132.23 28.1719C132.684 29.2266 133.355 30.043 134.246 30.6211C135.144 31.1992 136.266 31.4883 137.609 31.4883C138.375 31.4883 139.094 31.4258 139.766 31.3008C140.445 31.168 141.105 31.0039 141.746 30.8086V32.543C141.121 32.7774 140.465 32.9492 139.777 33.0586C139.09 33.1758 138.273 33.2344 137.328 33.2344C135.586 33.2344 134.129 32.875 132.957 32.1563C131.793 31.4297 130.918 30.4063 130.332 29.086C129.754 27.7657 129.465 26.2071 129.465 24.4102C129.465 23.1133 129.644 21.9297 130.004 20.8594C130.371 19.7813 130.902 18.8516 131.598 18.0703C132.301 17.2891 133.16 16.6875 134.176 16.2657C135.199 15.836 136.371 15.6211 137.691 15.6211C138.559 15.6211 139.394 15.7071 140.199 15.8789C141.004 16.0508 141.73 16.2969 142.379 16.6172L141.582 18.3047C141.035 18.0547 140.434 17.8399 139.777 17.6602C139.129 17.4727 138.426 17.3789 137.668 17.3789Z" fill="#6FB2F1"/>
<path d="M155.007 33L152.898 27.5625H146.03L143.933 33H141.917L148.62 15.7969H150.413L157.069 33H155.007ZM152.3 25.793L150.296 20.3907C150.249 20.25 150.171 20.0196 150.062 19.6992C149.96 19.3789 149.855 19.0469 149.745 18.7032C149.636 18.3594 149.546 18.0821 149.476 17.8711C149.398 18.1914 149.312 18.5117 149.218 18.8321C149.132 19.1446 149.046 19.4375 148.96 19.711C148.874 19.9766 148.8 20.2032 148.737 20.3907L146.698 25.793H152.3Z" fill="#6FB2F1"/>
<path d="M171.854 24.2696C171.854 26.1992 171.502 27.8125 170.799 29.1094C170.096 30.3985 169.077 31.3711 167.741 32.0274C166.412 32.6758 164.799 33 162.901 33H158.248V15.8672H163.416C165.159 15.8672 166.659 16.1875 167.916 16.8282C169.174 17.461 170.143 18.4024 170.823 19.6524C171.51 20.8946 171.854 22.4336 171.854 24.2696ZM169.756 24.3399C169.756 22.8008 169.498 21.5313 168.983 20.5313C168.475 19.5313 167.725 18.7891 166.733 18.3047C165.748 17.8125 164.541 17.5664 163.112 17.5664H160.241V31.2891H162.666C165.026 31.2891 166.795 30.7071 167.975 29.543C169.162 28.3789 169.756 26.6446 169.756 24.3399Z" fill="#6FB2F1"/>
<path d="M184.002 33H174.462V15.8672H184.002V17.625H176.455V23.168H183.568V24.9024H176.455V31.2422H184.002V33Z" fill="#6FB2F1"/>
<path d="M194.134 33L188.38 17.836H188.286C188.317 18.1563 188.344 18.5469 188.368 19.0078C188.391 19.4688 188.411 19.9727 188.427 20.5196C188.442 21.0586 188.45 21.6094 188.45 22.1719V33H186.598V15.8672H189.552L194.977 30.1172H195.059L200.567 15.8672H203.497V33H201.528V22.0313C201.528 21.5235 201.536 21.0157 201.552 20.5078C201.567 19.9922 201.587 19.5078 201.61 19.0547C201.634 18.5938 201.657 18.1953 201.68 17.8594H201.587L195.762 33H194.134Z" fill="#6FB2F1"/>
<path d="M211.355 24.4571L215.914 15.8672H218.059L212.352 26.3555V33H210.359V26.4492L204.641 15.8672H206.82L211.355 24.4571Z" fill="#6FB2F1"/>
<path d="M72.6796 49H71.75V46.1446V43.2891H74.9765V44.0782H72.6796V45.8594H74.8281V46.6446H72.6796V49Z" fill="#444444"/>
<path d="M81.2459 46.1367C81.2459 46.5768 81.1899 46.9779 81.0779 47.3399C80.9686 47.6992 80.8032 48.0091 80.5818 48.2696C80.3605 48.5274 80.0831 48.7266 79.7498 48.8672C79.4165 49.0078 79.0258 49.0782 78.5779 49.0782C78.1222 49.0782 77.7264 49.0078 77.3904 48.8672C77.0571 48.7266 76.7797 48.5261 76.5584 48.2657C76.3396 48.0052 76.1756 47.694 76.0662 47.3321C75.9568 46.9701 75.9021 46.569 75.9021 46.1289C75.9021 45.5404 75.9985 45.0274 76.1912 44.5899C76.3865 44.1498 76.6821 43.8086 77.0779 43.5664C77.4764 43.3216 77.979 43.1992 78.5857 43.1992C79.1795 43.1992 79.673 43.3203 80.0662 43.5625C80.4594 43.8047 80.7537 44.1459 80.949 44.586C81.1469 45.0235 81.2459 45.5404 81.2459 46.1367ZM76.8865 46.1367C76.8865 46.5768 76.9464 46.9584 77.0662 47.2813C77.186 47.6016 77.3696 47.849 77.617 48.0235C77.867 48.1953 78.1873 48.2813 78.5779 48.2813C78.9712 48.2813 79.2915 48.1953 79.5389 48.0235C79.7863 47.849 79.9686 47.6016 80.0857 47.2813C80.2029 46.9584 80.2615 46.5768 80.2615 46.1367C80.2615 45.4675 80.1274 44.944 79.8592 44.5664C79.5936 44.1862 79.1691 43.9961 78.5857 43.9961C78.1951 43.9961 77.8735 44.0821 77.6209 44.2539C77.3709 44.4258 77.186 44.6719 77.0662 44.9922C76.9464 45.3099 76.8865 45.6914 76.8865 46.1367Z" fill="#444444"/>
<path d="M84.2379 43.2891C84.7301 43.2891 85.1364 43.349 85.4567 43.4688C85.7796 43.5886 86.0192 43.7709 86.1754 44.0157C86.3343 44.2604 86.4137 44.5716 86.4137 44.9492C86.4137 45.2305 86.3616 45.4701 86.2575 45.668C86.1533 45.8659 86.0166 46.03 85.8473 46.1602C85.678 46.2904 85.497 46.3946 85.3043 46.4727L86.9254 49H85.8668L84.4879 46.711H83.57V49H82.6325V43.2891H84.2379ZM84.1754 44.0703H83.57V45.9375H84.2184C84.6533 45.9375 84.9684 45.8568 85.1637 45.6953C85.3616 45.5339 85.4606 45.2956 85.4606 44.9805C85.4606 44.6498 85.3551 44.4154 85.1442 44.2774C84.9358 44.1393 84.6129 44.0703 84.1754 44.0703Z" fill="#444444"/>
<path d="M93.4368 47.4453C93.4368 47.7839 93.3535 48.0755 93.1868 48.3203C93.0228 48.5651 92.7858 48.7526 92.4759 48.8828C92.1686 49.013 91.8014 49.0782 91.3743 49.0782C91.166 49.0782 90.9668 49.0664 90.7767 49.043C90.5866 49.0196 90.4069 48.9857 90.2376 48.9414C90.071 48.8946 89.9186 48.8386 89.7806 48.7735V47.8907C90.0124 47.9922 90.2715 48.0847 90.5579 48.168C90.8444 48.2487 91.1361 48.2891 91.4329 48.2891C91.6751 48.2891 91.8756 48.2578 92.0345 48.1953C92.196 48.1302 92.3157 48.0391 92.3939 47.9219C92.472 47.8021 92.5111 47.6628 92.5111 47.5039C92.5111 47.3347 92.4655 47.1914 92.3743 47.0742C92.2832 46.9571 92.1452 46.8503 91.9603 46.7539C91.778 46.655 91.5488 46.5495 91.2728 46.4375C91.0853 46.362 90.9056 46.2761 90.7337 46.1797C90.5644 46.0834 90.4134 45.9701 90.2806 45.8399C90.1478 45.7097 90.0423 45.556 89.9642 45.3789C89.8887 45.1992 89.8509 44.9883 89.8509 44.7461C89.8509 44.4232 89.9277 44.1472 90.0814 43.918C90.2376 43.6888 90.4564 43.513 90.7376 43.3907C91.0215 43.2683 91.3522 43.2071 91.7298 43.2071C92.0293 43.2071 92.3105 43.2383 92.5736 43.3008C92.8392 43.3633 93.0996 43.4518 93.3548 43.5664L93.0579 44.3203C92.8236 44.224 92.5957 44.1472 92.3743 44.0899C92.1556 44.0326 91.9316 44.0039 91.7025 44.0039C91.5045 44.0039 91.3366 44.0339 91.1986 44.0938C91.0605 44.1537 90.9551 44.2383 90.8821 44.3477C90.8118 44.4545 90.7767 44.5821 90.7767 44.7305C90.7767 44.8972 90.817 45.0378 90.8978 45.1524C90.9811 45.2643 91.1087 45.3672 91.2806 45.461C91.4551 45.5547 91.679 45.6589 91.9525 45.7735C92.2676 45.9037 92.5345 46.0404 92.7532 46.1836C92.9746 46.3268 93.1439 46.4987 93.2611 46.6992C93.3782 46.8972 93.4368 47.1459 93.4368 47.4453Z" fill="#444444"/>
<path d="M99.7687 46.1367C99.7687 46.5768 99.7127 46.9779 99.6007 47.3399C99.4914 47.6992 99.326 48.0091 99.1046 48.2696C98.8833 48.5274 98.6059 48.7266 98.2726 48.8672C97.9393 49.0078 97.5487 49.0782 97.1007 49.0782C96.645 49.0782 96.2492 49.0078 95.9132 48.8672C95.5799 48.7266 95.3026 48.5261 95.0812 48.2657C94.8625 48.0052 94.6984 47.694 94.589 47.3321C94.4796 46.9701 94.425 46.569 94.425 46.1289C94.425 45.5404 94.5213 45.0274 94.714 44.5899C94.9093 44.1498 95.2049 43.8086 95.6007 43.5664C95.9992 43.3216 96.5018 43.1992 97.1086 43.1992C97.7023 43.1992 98.1958 43.3203 98.589 43.5625C98.9822 43.8047 99.2765 44.1459 99.4718 44.586C99.6697 45.0235 99.7687 45.5404 99.7687 46.1367ZM95.4093 46.1367C95.4093 46.5768 95.4692 46.9584 95.589 47.2813C95.7088 47.6016 95.8924 47.849 96.1398 48.0235C96.3898 48.1953 96.7101 48.2813 97.1007 48.2813C97.494 48.2813 97.8143 48.1953 98.0617 48.0235C98.3091 47.849 98.4914 47.6016 98.6086 47.2813C98.7257 46.9584 98.7843 46.5768 98.7843 46.1367C98.7843 45.4675 98.6502 44.944 98.382 44.5664C98.1164 44.1862 97.6919 43.9961 97.1086 43.9961C96.7179 43.9961 96.3963 44.0821 96.1437 44.2539C95.8937 44.4258 95.7088 44.6719 95.589 44.9922C95.4692 45.3099 95.4093 45.6914 95.4093 46.1367Z" fill="#444444"/>
<path d="M103.589 44.0039C103.315 44.0039 103.071 44.0534 102.854 44.1524C102.641 44.2513 102.46 44.3946 102.312 44.5821C102.163 44.767 102.05 44.9922 101.972 45.2578C101.894 45.5209 101.854 45.8177 101.854 46.1485C101.854 46.5912 101.917 46.9727 102.042 47.293C102.167 47.6107 102.357 47.8555 102.612 48.0274C102.868 48.1966 103.19 48.2813 103.581 48.2813C103.823 48.2813 104.059 48.2578 104.288 48.211C104.517 48.1641 104.754 48.1003 104.999 48.0196V48.8164C104.767 48.9076 104.533 48.974 104.296 49.0157C104.059 49.0573 103.785 49.0782 103.476 49.0782C102.892 49.0782 102.408 48.9571 102.022 48.7149C101.64 48.4727 101.353 48.1315 101.163 47.6914C100.976 47.2513 100.882 46.7357 100.882 46.1446C100.882 45.7123 100.942 45.3164 101.062 44.9571C101.181 44.5977 101.356 44.2878 101.585 44.0274C101.814 43.7643 102.097 43.5625 102.433 43.4219C102.771 43.2787 103.158 43.2071 103.593 43.2071C103.879 43.2071 104.16 43.2396 104.437 43.3047C104.715 43.3672 104.973 43.4571 105.21 43.5742L104.882 44.3477C104.684 44.2539 104.477 44.1732 104.261 44.1055C104.045 44.0378 103.821 44.0039 103.589 44.0039Z" fill="#444444"/>
<path d="M106.386 49V43.2891H107.323V49H106.386Z" fill="#444444"/>
<path d="M112.53 49L111.971 47.4141H109.788L109.229 49H108.241L110.366 43.2657H111.405L113.526 49H112.53ZM111.729 46.6094L111.186 45.0469C111.165 44.9792 111.135 44.8841 111.096 44.7617C111.057 44.6367 111.018 44.5104 110.979 44.3828C110.94 44.2526 110.908 44.1433 110.882 44.0547C110.855 44.1615 110.823 44.2813 110.784 44.4141C110.747 44.5443 110.711 44.6667 110.674 44.7813C110.641 44.8959 110.615 44.9844 110.596 45.0469L110.049 46.6094H111.729Z" fill="#444444"/>
<path d="M114.44 49V43.2891H115.377V48.2032H117.803V49H114.44Z" fill="#444444"/>
<path d="M124.424 49H121.19V43.2891H124.424V44.0782H122.127V45.6289H124.279V46.4141H122.127V48.2071H124.424V49Z" fill="#444444"/>
<path d="M130.584 49H129.432L126.635 44.4414H126.6C126.61 44.5951 126.619 44.7578 126.627 44.9297C126.637 45.1016 126.645 45.2787 126.65 45.461C126.658 45.6433 126.665 45.8282 126.67 46.0157V49H125.818V43.2891H126.963L129.756 47.8164H129.783C129.778 47.6836 129.772 47.5313 129.764 47.3594C129.756 47.1875 129.748 47.0104 129.74 46.8282C129.735 46.6433 129.731 46.4649 129.729 46.293V43.2891H130.584V49Z" fill="#444444"/>
<path d="M134.224 49H133.283V44.086H131.611V43.2891H135.892V44.086H134.224V49Z" fill="#444444"/>
<path d="M138.533 43.2891C139.025 43.2891 139.431 43.349 139.752 43.4688C140.075 43.5886 140.314 43.7709 140.47 44.0157C140.629 44.2604 140.709 44.5716 140.709 44.9492C140.709 45.2305 140.657 45.4701 140.552 45.668C140.448 45.8659 140.312 46.03 140.142 46.1602C139.973 46.2904 139.792 46.3946 139.599 46.4727L141.22 49H140.162L138.783 46.711H137.865V49H136.927V43.2891H138.533ZM138.47 44.0703H137.865V45.9375H138.513C138.948 45.9375 139.263 45.8568 139.459 45.6953C139.657 45.5339 139.756 45.2956 139.756 44.9805C139.756 44.6498 139.65 44.4154 139.439 44.2774C139.231 44.1393 138.908 44.0703 138.47 44.0703Z" fill="#444444"/>
<path d="M145.431 49H142.197V43.2891H145.431V44.0782H143.134V45.6289H145.287V46.4141H143.134V48.2071H145.431V49Z" fill="#444444"/>
<path d="M148.486 43.2891C149.223 43.2891 149.76 43.4401 150.099 43.7422C150.438 44.0443 150.607 44.4675 150.607 45.0117C150.607 45.2591 150.568 45.4948 150.49 45.7188C150.414 45.9401 150.289 46.1367 150.115 46.3086C149.94 46.4779 149.71 46.612 149.423 46.711C149.139 46.8099 148.789 46.8594 148.372 46.8594H147.763V49H146.826V43.2891H148.486ZM148.423 44.0664H147.763V46.0782H148.275C148.569 46.0782 148.819 46.0443 149.025 45.9766C149.231 45.9063 149.387 45.7956 149.494 45.6446C149.6 45.4935 149.654 45.2943 149.654 45.0469C149.654 44.7162 149.553 44.4701 149.353 44.3086C149.155 44.1472 148.845 44.0664 148.423 44.0664Z" fill="#444444"/>
<path d="M153.513 43.2891C154.005 43.2891 154.411 43.349 154.732 43.4688C155.055 43.5886 155.294 43.7709 155.45 44.0157C155.609 44.2604 155.689 44.5716 155.689 44.9492C155.689 45.2305 155.637 45.4701 155.532 45.668C155.428 45.8659 155.292 46.03 155.122 46.1602C154.953 46.2904 154.772 46.3946 154.579 46.4727L156.2 49H155.142L153.763 46.711H152.845V49H151.907V43.2891H153.513ZM153.45 44.0703H152.845V45.9375H153.493C153.928 45.9375 154.243 45.8568 154.439 45.6953C154.637 45.5339 154.736 45.2956 154.736 44.9805C154.736 44.6498 154.63 44.4154 154.419 44.2774C154.211 44.1393 153.888 44.0703 153.45 44.0703Z" fill="#444444"/>
<path d="M160.411 49H157.177V43.2891H160.411V44.0782H158.114V45.6289H160.267V46.4141H158.114V48.2071H160.411V49Z" fill="#444444"/>
<path d="M166.571 49H165.419L162.622 44.4414H162.587C162.597 44.5951 162.606 44.7578 162.614 44.9297C162.625 45.1016 162.632 45.2787 162.638 45.461C162.645 45.6433 162.652 45.8282 162.657 46.0157V49H161.806V43.2891H162.95L165.743 47.8164H165.77C165.765 47.6836 165.759 47.5313 165.751 47.3594C165.743 47.1875 165.735 47.0104 165.727 46.8282C165.722 46.6433 165.718 46.4649 165.716 46.293V43.2891H166.571V49Z" fill="#444444"/>
<path d="M171.466 49H168.231V43.2891H171.466V44.0782H169.169V45.6289H171.321V46.4141H169.169V48.2071H171.466V49Z" fill="#444444"/>
<path d="M177.344 43.2891V46.9844C177.344 47.3828 177.26 47.7396 177.09 48.0547C176.924 48.3698 176.671 48.6198 176.333 48.8047C175.994 48.987 175.568 49.0782 175.055 49.0782C174.323 49.0782 173.766 48.8867 173.383 48.5039C173.003 48.1185 172.813 47.6068 172.813 46.9688V43.2891H173.751V46.8867C173.751 47.3633 173.863 47.7149 174.087 47.9414C174.31 48.168 174.645 48.2813 175.09 48.2813C175.398 48.2813 175.648 48.2279 175.84 48.1211C176.036 48.0117 176.179 47.8529 176.27 47.6446C176.364 47.4336 176.411 47.1797 176.411 46.8828V43.2891H177.344Z" fill="#444444"/>
<path d="M180.571 43.2891C181.063 43.2891 181.469 43.349 181.789 43.4688C182.112 43.5886 182.352 43.7709 182.508 44.0157C182.667 44.2604 182.747 44.5716 182.747 44.9492C182.747 45.2305 182.694 45.4701 182.59 45.668C182.486 45.8659 182.349 46.03 182.18 46.1602C182.011 46.2904 181.83 46.3946 181.637 46.4727L183.258 49H182.2L180.821 46.711H179.903V49H178.965V43.2891H180.571ZM180.508 44.0703H179.903V45.9375H180.551C180.986 45.9375 181.301 45.8568 181.497 45.6953C181.694 45.5339 181.793 45.2956 181.793 44.9805C181.793 44.6498 181.688 44.4154 181.477 44.2774C181.269 44.1393 180.946 44.0703 180.508 44.0703Z" fill="#444444"/>
<path d="M187.532 47.4453C187.532 47.7839 187.448 48.0755 187.282 48.3203C187.117 48.5651 186.88 48.7526 186.571 48.8828C186.263 49.013 185.896 49.0782 185.469 49.0782C185.261 49.0782 185.061 49.0664 184.871 49.043C184.681 49.0196 184.502 48.9857 184.332 48.9414C184.166 48.8946 184.013 48.8386 183.875 48.7735V47.8907C184.107 47.9922 184.366 48.0847 184.653 48.168C184.939 48.2487 185.231 48.2891 185.528 48.2891C185.77 48.2891 185.97 48.2578 186.129 48.1953C186.291 48.1302 186.41 48.0391 186.489 47.9219C186.567 47.8021 186.606 47.6628 186.606 47.5039C186.606 47.3347 186.56 47.1914 186.469 47.0742C186.378 46.9571 186.24 46.8503 186.055 46.7539C185.873 46.655 185.644 46.5495 185.367 46.4375C185.18 46.362 185 46.2761 184.828 46.1797C184.659 46.0834 184.508 45.9701 184.375 45.8399C184.242 45.7097 184.137 45.556 184.059 45.3789C183.983 45.1992 183.946 44.9883 183.946 44.7461C183.946 44.4232 184.022 44.1472 184.176 43.918C184.332 43.6888 184.551 43.513 184.832 43.3907C185.116 43.2683 185.447 43.2071 185.824 43.2071C186.124 43.2071 186.405 43.2383 186.668 43.3008C186.934 43.3633 187.194 43.4518 187.449 43.5664L187.153 44.3203C186.918 44.224 186.69 44.1472 186.469 44.0899C186.25 44.0326 186.026 44.0039 185.797 44.0039C185.599 44.0039 185.431 44.0339 185.293 44.0938C185.155 44.1537 185.05 44.2383 184.977 44.3477C184.907 44.4545 184.871 44.5821 184.871 44.7305C184.871 44.8972 184.912 45.0378 184.992 45.1524C185.076 45.2643 185.203 45.3672 185.375 45.461C185.55 45.5547 185.774 45.6589 186.047 45.7735C186.362 45.9037 186.629 46.0404 186.848 46.1836C187.069 46.3268 187.239 46.4987 187.356 46.6992C187.473 46.8972 187.532 47.1459 187.532 47.4453Z" fill="#444444"/>
<path d="M193.297 49H192.363V46.4219H189.731V49H188.793V43.2891H189.731V45.625H192.363V43.2891H193.297V49Z" fill="#444444"/>
<path d="M194.969 49V43.2891H195.906V49H194.969Z" fill="#444444"/>
<path d="M199.234 43.2891C199.971 43.2891 200.509 43.4401 200.847 43.7422C201.186 44.0443 201.355 44.4675 201.355 45.0117C201.355 45.2591 201.316 45.4948 201.238 45.7188C201.163 45.9401 201.038 46.1367 200.863 46.3086C200.689 46.4779 200.458 46.612 200.172 46.711C199.888 46.8099 199.538 46.8594 199.121 46.8594H198.512V49H197.574V43.2891H199.234ZM199.172 44.0664H198.512V46.0782H199.023C199.318 46.0782 199.568 46.0443 199.773 45.9766C199.979 45.9063 200.135 45.7956 200.242 45.6446C200.349 45.4935 200.402 45.2943 200.402 45.0469C200.402 44.7162 200.302 44.4701 200.101 44.3086C199.903 44.1472 199.594 44.0664 199.172 44.0664Z" fill="#444444"/>
<path d="M73.457 52.2032C73.7513 52.2032 74.0091 52.2513 74.2304 52.3477C74.4544 52.444 74.6289 52.5847 74.7539 52.7696C74.8789 52.9518 74.9414 53.1745 74.9414 53.4375C74.9414 53.7891 74.832 54.086 74.6132 54.3282C74.3945 54.5703 74.1185 54.7865 73.7851 54.9766L75.1328 56.2891C75.2604 56.1146 75.3658 55.9232 75.4492 55.7149C75.5325 55.5039 75.6041 55.2826 75.664 55.0508H76.6132C76.5325 55.3737 76.4205 55.6927 76.2773 56.0078C76.1341 56.3203 75.9531 56.6068 75.7343 56.8672L76.8945 58H75.7187L75.1406 57.4336C74.9791 57.5638 74.806 57.6771 74.6211 57.7735C74.4388 57.8698 74.2395 57.9453 74.0234 58C73.8073 58.0521 73.569 58.0782 73.3086 58.0782C72.9101 58.0782 72.5664 58.0143 72.2773 57.8867C71.9882 57.7591 71.7656 57.5768 71.6093 57.3399C71.4557 57.1003 71.3789 56.8164 71.3789 56.4883C71.3789 56.2149 71.4244 55.9805 71.5156 55.7852C71.6093 55.5873 71.7421 55.4141 71.914 55.2657C72.0859 55.1146 72.2916 54.9714 72.5312 54.836C72.401 54.6875 72.2877 54.543 72.1914 54.4024C72.095 54.2617 72.0208 54.1172 71.9687 53.9688C71.9192 53.8177 71.8945 53.6563 71.8945 53.4844C71.8945 53.2188 71.9596 52.9909 72.0898 52.8008C72.22 52.6081 72.4023 52.461 72.6367 52.3594C72.8711 52.2552 73.1445 52.2032 73.457 52.2032ZM73.0742 55.3946C72.9231 55.4909 72.7929 55.5886 72.6836 55.6875C72.5742 55.7839 72.4895 55.8907 72.4296 56.0078C72.3724 56.125 72.3437 56.2617 72.3437 56.418C72.3437 56.6862 72.4375 56.8985 72.625 57.0547C72.8151 57.211 73.0599 57.2891 73.3593 57.2891C73.6224 57.2891 73.8528 57.25 74.0507 57.1719C74.2513 57.0912 74.4257 56.9909 74.5742 56.8711L73.0742 55.3946ZM73.4414 52.9297C73.2565 52.9297 73.0963 52.9779 72.9609 53.0742C72.8281 53.1706 72.7617 53.3203 72.7617 53.5235C72.7617 53.6875 72.8046 53.8425 72.8906 53.9883C72.9791 54.1315 73.1015 54.2865 73.2578 54.4532C73.5312 54.3021 73.7343 54.1537 73.8671 54.0078C74.0026 53.862 74.0703 53.6927 74.0703 53.5C74.0703 53.3177 74.0091 53.1771 73.8867 53.0782C73.7643 52.9792 73.6158 52.9297 73.4414 52.9297Z" fill="#444444"/>
<path d="M84.5661 58H83.6325V55.4219H80.9996V58H80.0621V52.2891H80.9996V54.625H83.6325V52.2891H84.5661V58Z" fill="#444444"/>
<path d="M90.7221 52.2891V55.9844C90.7221 56.3828 90.6375 56.7396 90.4682 57.0547C90.3016 57.3698 90.049 57.6198 89.7104 57.8047C89.3719 57.987 88.9461 58.0782 88.4331 58.0782C87.7013 58.0782 87.144 57.8867 86.7612 57.5039C86.381 57.1185 86.1909 56.6068 86.1909 55.9688V52.2891H87.1284V55.8867C87.1284 56.3633 87.2404 56.7149 87.4643 56.9414C87.6883 57.168 88.0229 57.2813 88.4682 57.2813C88.7755 57.2813 89.0255 57.2279 89.2182 57.1211C89.4136 57.0117 89.5568 56.8529 89.6479 56.6446C89.7417 56.4336 89.7886 56.1797 89.7886 55.8828V52.2891H90.7221Z" fill="#444444"/>
<path d="M94.8079 58L93.1634 53.2305H93.1282C93.1361 53.3373 93.1452 53.4831 93.1556 53.668C93.166 53.8529 93.1751 54.0508 93.1829 54.2617C93.1907 54.4727 93.1946 54.6745 93.1946 54.8672V58H92.3431V52.2891H93.6595L95.2415 56.8477H95.265L96.9017 52.2891H98.2142V58H97.3196V54.8203C97.3196 54.6459 97.3223 54.4571 97.3275 54.2539C97.3353 54.0508 97.3431 53.8581 97.3509 53.6758C97.3613 53.4935 97.3691 53.3477 97.3743 53.2383H97.3431L95.6361 58H94.8079Z" fill="#444444"/>
<path d="M103.417 58L102.859 56.4141H100.675L100.116 58H99.1281L101.253 52.2657H102.292L104.413 58H103.417ZM102.616 55.6094L102.073 54.0469C102.053 53.9792 102.023 53.8841 101.984 53.7617C101.944 53.6367 101.905 53.5104 101.866 53.3828C101.827 53.2526 101.795 53.1433 101.769 53.0547C101.743 53.1615 101.71 53.2813 101.671 53.4141C101.635 53.5443 101.598 53.6667 101.562 53.7813C101.528 53.8959 101.502 53.9844 101.484 54.0469L100.937 55.6094H102.616Z" fill="#444444"/>
<path d="M110.093 58H108.94L106.144 53.4414H106.108C106.119 53.5951 106.128 53.7578 106.136 53.9297C106.146 54.1016 106.154 54.2787 106.159 54.461C106.167 54.6433 106.174 54.8282 106.179 55.0157V58H105.327V52.2891H106.472L109.265 56.8164H109.292C109.287 56.6836 109.28 56.5313 109.272 56.3594C109.265 56.1875 109.257 56.0104 109.249 55.8282C109.244 55.6433 109.24 55.4649 109.237 55.293V52.2891H110.093V58Z" fill="#444444"/>
<path d="M115.596 52.2891C116.089 52.2891 116.495 52.349 116.815 52.4688C117.138 52.5886 117.378 52.7709 117.534 53.0157C117.693 53.2604 117.772 53.5716 117.772 53.9492C117.772 54.2305 117.72 54.4701 117.616 54.668C117.512 54.8659 117.375 55.03 117.206 55.1602C117.036 55.2904 116.855 55.3946 116.663 55.4727L118.284 58H117.225L115.846 55.711H114.928V58H113.991V52.2891H115.596ZM115.534 53.0703H114.928V54.9375H115.577C116.012 54.9375 116.327 54.8568 116.522 54.6953C116.72 54.5339 116.819 54.2956 116.819 53.9805C116.819 53.6498 116.714 53.4154 116.503 53.2774C116.294 53.1393 115.971 53.0703 115.534 53.0703Z" fill="#444444"/>
<path d="M122.495 58H119.26V52.2891H122.495V53.0782H120.198V54.6289H122.35V55.4141H120.198V57.2071H122.495V58Z" fill="#444444"/>
<path d="M127.186 56.4453C127.186 56.7839 127.103 57.0755 126.936 57.3203C126.772 57.5651 126.535 57.7526 126.225 57.8828C125.918 58.013 125.55 58.0782 125.123 58.0782C124.915 58.0782 124.716 58.0664 124.526 58.043C124.336 58.0196 124.156 57.9857 123.987 57.9414C123.82 57.8946 123.668 57.8386 123.53 57.7735V56.8907C123.761 56.9922 124.021 57.0847 124.307 57.168C124.593 57.2487 124.885 57.2891 125.182 57.2891C125.424 57.2891 125.625 57.2578 125.784 57.1953C125.945 57.1302 126.065 57.0391 126.143 56.9219C126.221 56.8021 126.26 56.6628 126.26 56.5039C126.26 56.3347 126.215 56.1914 126.123 56.0742C126.032 55.9571 125.894 55.8503 125.709 55.7539C125.527 55.655 125.298 55.5495 125.022 55.4375C124.834 55.362 124.655 55.2761 124.483 55.1797C124.314 55.0834 124.162 54.9701 124.03 54.8399C123.897 54.7097 123.791 54.556 123.713 54.3789C123.638 54.1992 123.6 53.9883 123.6 53.7461C123.6 53.4232 123.677 53.1472 123.83 52.918C123.987 52.6888 124.205 52.513 124.487 52.3907C124.771 52.2683 125.101 52.2071 125.479 52.2071C125.778 52.2071 126.06 52.2383 126.323 52.3008C126.588 52.3633 126.849 52.4518 127.104 52.5664L126.807 53.3203C126.573 53.224 126.345 53.1472 126.123 53.0899C125.905 53.0326 125.681 53.0039 125.452 53.0039C125.254 53.0039 125.086 53.0339 124.948 53.0938C124.81 53.1537 124.704 53.2383 124.631 53.3477C124.561 53.4545 124.526 53.5821 124.526 53.7305C124.526 53.8972 124.566 54.0378 124.647 54.1524C124.73 54.2643 124.858 54.3672 125.03 54.461C125.204 54.5547 125.428 54.6589 125.702 54.7735C126.017 54.9037 126.284 55.0404 126.502 55.1836C126.724 55.3268 126.893 55.4987 127.01 55.6992C127.127 55.8972 127.186 56.1459 127.186 56.4453Z" fill="#444444"/>
<path d="M133.518 55.1367C133.518 55.5768 133.462 55.9779 133.35 56.3399C133.24 56.6992 133.075 57.0091 132.854 57.2696C132.632 57.5274 132.355 57.7266 132.022 57.8672C131.688 58.0078 131.298 58.0782 130.85 58.0782C130.394 58.0782 129.998 58.0078 129.662 57.8672C129.329 57.7266 129.052 57.5261 128.83 57.2657C128.612 57.0052 128.447 56.694 128.338 56.3321C128.229 55.9701 128.174 55.569 128.174 55.1289C128.174 54.5404 128.27 54.0274 128.463 53.5899C128.658 53.1498 128.954 52.8086 129.35 52.5664C129.748 52.3216 130.251 52.1992 130.858 52.1992C131.451 52.1992 131.945 52.3203 132.338 52.5625C132.731 52.8047 133.026 53.1459 133.221 53.586C133.419 54.0235 133.518 54.5404 133.518 55.1367ZM129.158 55.1367C129.158 55.5768 129.218 55.9584 129.338 56.2813C129.458 56.6016 129.641 56.849 129.889 57.0235C130.139 57.1953 130.459 57.2813 130.85 57.2813C131.243 57.2813 131.563 57.1953 131.811 57.0235C132.058 56.849 132.24 56.6016 132.358 56.2813C132.475 55.9584 132.533 55.5768 132.533 55.1367C132.533 54.4675 132.399 53.944 132.131 53.5664C131.865 53.1862 131.441 52.9961 130.858 52.9961C130.467 52.9961 130.145 53.0821 129.893 53.2539C129.643 53.4258 129.458 53.6719 129.338 53.9922C129.218 54.3099 129.158 54.6914 129.158 55.1367Z" fill="#444444"/>
<path d="M139.389 52.2891V55.9844C139.389 56.3828 139.304 56.7396 139.135 57.0547C138.968 57.3698 138.716 57.6198 138.377 57.8047C138.038 57.987 137.613 58.0782 137.1 58.0782C136.368 58.0782 135.811 57.8867 135.428 57.5039C135.048 57.1185 134.857 56.6068 134.857 55.9688V52.2891H135.795V55.8867C135.795 56.3633 135.907 56.7149 136.131 56.9414C136.355 57.168 136.689 57.2813 137.135 57.2813C137.442 57.2813 137.692 57.2279 137.885 57.1211C138.08 57.0117 138.223 56.8529 138.314 56.6446C138.408 56.4336 138.455 56.1797 138.455 55.8828V52.2891H139.389Z" fill="#444444"/>
<path d="M142.615 52.2891C143.107 52.2891 143.514 52.349 143.834 52.4688C144.157 52.5886 144.396 52.7709 144.553 53.0157C144.711 53.2604 144.791 53.5716 144.791 53.9492C144.791 54.2305 144.739 54.4701 144.635 54.668C144.53 54.8659 144.394 55.03 144.224 55.1602C144.055 55.2904 143.874 55.3946 143.682 55.4727L145.303 58H144.244L142.865 55.711H141.947V58H141.01V52.2891H142.615ZM142.553 53.0703H141.947V54.9375H142.596C143.03 54.9375 143.346 54.8568 143.541 54.6953C143.739 54.5339 143.838 54.2956 143.838 53.9805C143.838 53.6498 143.732 53.4154 143.521 53.2774C143.313 53.1393 142.99 53.0703 142.553 53.0703Z" fill="#444444"/>
<path d="M148.713 53.0039C148.439 53.0039 148.194 53.0534 147.978 53.1524C147.765 53.2513 147.584 53.3946 147.435 53.5821C147.287 53.767 147.174 53.9922 147.095 54.2578C147.017 54.5209 146.978 54.8177 146.978 55.1485C146.978 55.5912 147.041 55.9727 147.166 56.293C147.291 56.6107 147.481 56.8555 147.736 57.0274C147.991 57.1966 148.314 57.2813 148.705 57.2813C148.947 57.2813 149.183 57.2578 149.412 57.211C149.641 57.1641 149.878 57.1003 150.123 57.0196V57.8164C149.891 57.9076 149.657 57.974 149.42 58.0157C149.183 58.0573 148.909 58.0782 148.599 58.0782C148.016 58.0782 147.532 57.9571 147.146 57.7149C146.763 57.4727 146.477 57.1315 146.287 56.6914C146.099 56.2513 146.006 55.7357 146.006 55.1446C146.006 54.7123 146.065 54.3164 146.185 53.9571C146.305 53.5977 146.48 53.2878 146.709 53.0274C146.938 52.7643 147.22 52.5625 147.556 52.4219C147.895 52.2787 148.282 52.2071 148.717 52.2071C149.003 52.2071 149.284 52.2396 149.56 52.3047C149.839 52.3672 150.097 52.4571 150.334 52.5742L150.006 53.3477C149.808 53.2539 149.601 53.1732 149.384 53.1055C149.168 53.0378 148.944 53.0039 148.713 53.0039Z" fill="#444444"/>
<path d="M154.744 58H151.509V52.2891H154.744V53.0782H152.447V54.6289H154.599V55.4141H152.447V57.2071H154.744V58Z" fill="#444444"/>
<path d="M163.013 55.0899C163.013 55.7331 162.893 56.2709 162.654 56.7032C162.414 57.1328 162.066 57.4571 161.611 57.6758C161.155 57.892 160.605 58 159.962 58H158.376V52.2891H160.134C160.725 52.2891 161.236 52.3959 161.665 52.6094C162.095 52.8203 162.427 53.1341 162.661 53.5508C162.896 53.9649 163.013 54.4779 163.013 55.0899ZM162.036 55.1172C162.036 54.6485 161.962 54.263 161.814 53.961C161.668 53.6589 161.452 53.4349 161.165 53.2891C160.881 53.1407 160.531 53.0664 160.114 53.0664H159.314V57.2149H159.978C160.668 57.2149 161.183 57.0391 161.525 56.6875C161.866 56.336 162.036 55.8125 162.036 55.1172Z" fill="#444444"/>
<path d="M167.638 58H164.403V52.2891H167.638V53.0782H165.341V54.6289H167.493V55.4141H165.341V57.2071H167.638V58Z" fill="#444444"/>
<path d="M173.267 52.2891L171.27 58H170.278L168.282 52.2891H169.243L170.446 55.8672C170.483 55.9714 170.522 56.0977 170.563 56.2461C170.608 56.3946 170.648 56.5443 170.684 56.6953C170.724 56.8464 170.754 56.9805 170.774 57.0977C170.795 56.9805 170.824 56.8464 170.86 56.6953C170.899 56.5443 170.94 56.3946 170.981 56.2461C171.023 56.0977 171.062 55.9701 171.099 55.8633L172.306 52.2891H173.267Z" fill="#444444"/>
<path d="M177.411 58H174.177V52.2891H177.411V53.0782H175.114V54.6289H177.266V55.4141H175.114V57.2071H177.411V58Z" fill="#444444"/>
<path d="M178.805 58V52.2891H179.743V57.2032H182.169V58H178.805Z" fill="#444444"/>
<path d="M188.387 55.1367C188.387 55.5768 188.331 55.9779 188.219 56.3399C188.11 56.6992 187.944 57.0091 187.723 57.2696C187.502 57.5274 187.224 57.7266 186.891 57.8672C186.558 58.0078 186.167 58.0782 185.719 58.0782C185.263 58.0782 184.868 58.0078 184.532 57.8672C184.198 57.7266 183.921 57.5261 183.7 57.2657C183.481 57.0052 183.317 56.694 183.207 56.3321C183.098 55.9701 183.043 55.569 183.043 55.1289C183.043 54.5404 183.14 54.0274 183.332 53.5899C183.528 53.1498 183.823 52.8086 184.219 52.5664C184.618 52.3216 185.12 52.1992 185.727 52.1992C186.321 52.1992 186.814 52.3203 187.207 52.5625C187.601 52.8047 187.895 53.1459 188.09 53.586C188.288 54.0235 188.387 54.5404 188.387 55.1367ZM184.028 55.1367C184.028 55.5768 184.088 55.9584 184.207 56.2813C184.327 56.6016 184.511 56.849 184.758 57.0235C185.008 57.1953 185.329 57.2813 185.719 57.2813C186.112 57.2813 186.433 57.1953 186.68 57.0235C186.928 56.849 187.11 56.6016 187.227 56.2813C187.344 55.9584 187.403 55.5768 187.403 55.1367C187.403 54.4675 187.269 53.944 187 53.5664C186.735 53.1862 186.31 52.9961 185.727 52.9961C185.336 52.9961 185.015 53.0821 184.762 53.2539C184.512 53.4258 184.327 53.6719 184.207 53.9922C184.088 54.3099 184.028 54.6914 184.028 55.1367Z" fill="#444444"/>
<path d="M191.434 52.2891C192.171 52.2891 192.709 52.4401 193.047 52.7422C193.386 53.0443 193.555 53.4675 193.555 54.0117C193.555 54.2591 193.516 54.4948 193.438 54.7188C193.362 54.9401 193.237 55.1367 193.063 55.3086C192.888 55.4779 192.658 55.612 192.371 55.711C192.088 55.8099 191.737 55.8594 191.321 55.8594H190.711V58H189.774V52.2891H191.434ZM191.371 53.0664H190.711V55.0782H191.223C191.517 55.0782 191.767 55.0443 191.973 54.9766C192.179 54.9063 192.335 54.7956 192.442 54.6446C192.548 54.4935 192.602 54.2943 192.602 54.0469C192.602 53.7162 192.502 53.4701 192.301 53.3086C192.103 53.1472 191.793 53.0664 191.371 53.0664Z" fill="#444444"/>
<path d="M197.32 58L195.676 53.2305H195.641C195.649 53.3373 195.658 53.4831 195.668 53.668C195.678 53.8529 195.688 54.0508 195.695 54.2617C195.703 54.4727 195.707 54.6745 195.707 54.8672V58H194.856V52.2891H196.172L197.754 56.8477H197.777L199.414 52.2891H200.727V58H199.832V54.8203C199.832 54.6459 199.835 54.4571 199.84 54.2539C199.848 54.0508 199.856 53.8581 199.863 53.6758C199.874 53.4935 199.882 53.3477 199.887 53.2383H199.856L198.149 58H197.32Z" fill="#444444"/>
<path d="M205.625 58H202.391V52.2891H205.625V53.0782H203.328V54.6289H205.48V55.4141H203.328V57.2071H205.625V58Z" fill="#444444"/>
<path d="M211.785 58H210.633L207.836 53.4414H207.801C207.811 53.5951 207.82 53.7578 207.828 53.9297C207.838 54.1016 207.846 54.2787 207.851 54.461C207.859 54.6433 207.866 54.8282 207.871 55.0157V58H207.019V52.2891H208.164L210.957 56.8164H210.984C210.979 56.6836 210.972 56.5313 210.965 56.3594C210.957 56.1875 210.949 56.0104 210.941 55.8282C210.936 55.6433 210.932 55.4649 210.929 55.293V52.2891H211.785V58Z" fill="#444444"/>
<path d="M215.425 58H214.484V53.086H212.812V52.2891H217.093V53.086H215.425V58Z" fill="#444444"/>
</svg>
