<svg width="560" height="400" viewBox="0 0 560 400" fill="none" xmlns="http://www.w3.org/2000/svg">
<path opacity="0.3" d="M439.918 66.9599C496.865 86.5395 551.249 140.045 552.904 209.214C554.559 278.384 535.66 348.817 431.767 376.121C334.192 401.771 102.525 411.062 40.7736 325.108C-17.4367 244.066 1.0888 112.509 102.81 70.4308C174.154 40.9369 328.533 28.8154 439.918 66.9599Z" fill="#E6E6E6"/>
<path d="M470 107H91V348H470V107Z" fill="#FFAF36"/>
<path d="M437 132H124V324H437V132Z" fill="#24285B"/>
<path d="M492 348H73V383H492V348Z" fill="#FFAF36"/>
<path opacity="0.08" d="M492 348H73V383H492V348Z" fill="black"/>
<path d="M292.12 324L311 316.776L282.323 242L146 294.05L157.478 324H292.12Z" fill="#FFD200"/>
<path opacity="0.08" d="M292.202 324L311 316.768L247.717 298.161L223.382 291L210.014 312.625L203 324H292.202Z" fill="black"/>
<path opacity="0.08" d="M281 242L146 294.191L233.15 320L281 242Z" fill="black"/>
<path d="M326.852 121.334L185.114 158.122L205.338 236.042L347.076 199.254L326.852 121.334Z" fill="#FFD200"/>
<path opacity="0.08" d="M347 199.38L206 236L262.574 164L347 199.38Z" fill="black"/>
<path opacity="0.08" d="M327 122L185 158.62L270.043 194L327 122Z" fill="black"/>
<path d="M452.228 64.2678L318.319 5.01074L285.743 78.6273L419.652 137.884L452.228 64.2678Z" fill="#FFD200"/>
<path opacity="0.08" d="M420 138L285 79.1801L375.239 58L420 138Z" fill="black"/>
<path opacity="0.08" d="M452 64.5551L318 5L362.447 86L452 64.5551Z" fill="black"/>
<path opacity="0.08" d="M317 348H248V365H317V348Z" fill="black"/>
<path opacity="0.08" d="M388 182V198.73V279H470V198.73V182H388Z" fill="black"/>
<path d="M501 191H396V272H501V191Z" fill="#E6E6E6"/>
<path d="M501 173H396V191H501V173Z" fill="#B3B3B3"/>
<path d="M467.928 245.896H474C472.095 249.831 469.037 253.063 465.251 255.145C460.167 257.839 454.492 259.161 448.767 258.984C443.186 259.124 437.643 258.014 432.528 255.734C428.184 253.79 424.6 250.421 422.343 246.163C420.113 241.934 418.963 237.199 419.001 232.396C418.977 227.072 420.284 221.83 422.798 217.165C425.142 212.656 428.757 208.968 433.175 206.576C437.828 204.144 442.997 202.917 448.224 203.004C452.642 202.925 457.017 203.904 460.998 205.861C464.575 207.632 467.55 210.456 469.538 213.968C471.495 217.457 472.509 221.413 472.478 225.432C472.51 230.287 470.938 235.011 468.015 238.842C466.403 241.209 464.248 243.136 461.737 244.456C459.227 245.776 456.438 246.448 453.614 246.413C452.393 246.48 451.178 246.189 450.114 245.574C449.301 244.976 448.734 244.092 448.522 243.092C447.512 244.145 446.306 244.981 444.974 245.552C443.643 246.122 442.213 246.415 440.77 246.413C439.303 246.454 437.845 246.178 436.491 245.602C435.137 245.027 433.917 244.165 432.913 243.074C431.837 241.872 431.008 240.464 430.473 238.931C429.939 237.397 429.709 235.771 429.798 234.146C429.761 229.684 431.075 225.319 433.56 221.647C434.756 219.564 436.463 217.835 438.513 216.63C440.562 215.425 442.884 214.784 445.249 214.772C446.732 214.679 448.212 214.998 449.531 215.697C450.851 216.395 451.959 217.445 452.739 218.736L453.456 215.504H460.981L456.606 236.521C456.411 237.361 456.276 238.214 456.204 239.074C456.179 239.467 456.297 239.855 456.536 240.164C456.632 240.282 456.752 240.377 456.889 240.442C457.025 240.506 457.173 240.54 457.324 240.539C458.641 240.32 459.862 239.698 460.823 238.753C462.827 237.229 464.447 235.239 465.548 232.95C466.706 230.55 467.305 227.91 467.298 225.236C467.345 222.986 466.916 220.753 466.04 218.689C465.164 216.624 463.863 214.776 462.223 213.272C458.852 210.058 454.133 208.451 448.067 208.451C443.494 208.304 438.967 209.414 434.96 211.665C431.415 213.76 428.592 216.922 426.875 220.718C425.078 224.503 424.145 228.654 424.146 232.86C424.105 236.797 425.154 240.666 427.173 244.021C429.167 247.349 432.162 249.93 435.712 251.378C443.526 254.314 452.087 254.446 459.983 251.752C463.105 250.576 465.853 248.551 467.928 245.896V245.896ZM437.112 233.932C436.978 235.837 437.498 237.731 438.582 239.289C439.014 239.847 439.565 240.297 440.192 240.607C440.819 240.916 441.508 241.076 442.204 241.074C443.278 241.079 444.334 240.796 445.267 240.253C446.077 239.793 446.8 239.188 447.402 238.467C448.59 236.929 449.476 235.171 450.009 233.289C450.706 231.243 451.078 229.097 451.111 226.932C451.224 225.123 450.689 223.334 449.607 221.897C449.15 221.327 448.572 220.871 447.917 220.561C447.263 220.252 446.548 220.098 445.827 220.111C444.127 220.139 442.503 220.837 441.295 222.057C439.78 223.566 438.698 225.468 438.162 227.557C437.513 229.619 437.16 231.766 437.112 233.932V233.932Z" fill="#B3B3B3"/>
<path opacity="0.08" d="M145 182H91V243H145V182Z" fill="black"/>
<path d="M138 172H71V234H138V172Z" fill="#E6E6E6"/>
<path d="M119 197.558L105 183L91 197.558H97.4122V223H112.588V197.558H119Z" fill="#B3B3B3"/>
</svg>
