<svg width="843" height="635" viewBox="0 0 843 635" fill="none" xmlns="http://www.w3.org/2000/svg">
<path opacity="0.45" d="M428.982 567.748C613.21 567.748 762.557 552.66 762.557 534.048C762.557 515.435 613.21 500.347 428.982 500.347C244.753 500.347 95.4065 515.435 95.4065 534.048C95.4065 552.66 244.753 567.748 428.982 567.748Z" fill="#E6E6E6"/>
<path d="M235.661 217.22C234.213 212.493 234.129 207.454 235.419 202.682C236.709 197.909 239.32 193.598 242.952 190.243C246.585 186.888 251.091 184.625 255.952 183.715C260.814 182.805 265.833 183.285 270.434 185.099C286.578 191.417 304.639 204.329 319.539 230.068C331.151 250.12 339.497 263.411 345.461 272.194C346.95 274.395 348.938 276.214 351.264 277.501C353.59 278.789 356.188 279.508 358.845 279.6C361.502 279.692 364.143 279.156 366.553 278.033C368.963 276.911 371.073 275.235 372.711 273.142L422.174 209.953L440.657 223.559C440.657 223.559 398.929 327.168 351.995 322.976C311.531 319.417 257.621 288.012 235.661 217.22Z" fill="#FFAF36"/>
<path opacity="0.64" d="M235.661 217.22C234.213 212.493 234.129 207.454 235.419 202.682C236.709 197.909 239.32 193.598 242.952 190.243C246.585 186.888 251.091 184.625 255.952 183.715C260.814 182.805 265.833 183.285 270.434 185.099C286.578 191.417 304.639 204.329 319.539 230.068C331.151 250.12 339.497 263.411 345.461 272.194C346.95 274.395 348.938 276.214 351.264 277.501C353.59 278.789 356.188 279.508 358.845 279.6C361.502 279.692 364.143 279.156 366.553 278.033C368.963 276.911 371.073 275.235 372.711 273.142L422.174 209.953L440.657 223.559C440.657 223.559 398.929 327.168 351.995 322.976C311.531 319.417 257.621 288.012 235.661 217.22Z" fill="white"/>
<path d="M265.714 516.46C265.714 516.46 268.474 524.106 275.387 524.696C282.3 525.286 284.112 532.026 277.895 533.795C271.678 535.564 255.64 527.476 255.64 527.476L256.082 517.513L265.714 516.46Z" fill="#FFAF36"/>
<path d="M178.821 516.46C178.821 516.46 176.082 524.106 169.169 524.696C162.256 525.286 160.444 532.026 166.661 533.795C172.878 535.564 188.916 527.476 188.916 527.476L188.453 517.598L178.821 516.46Z" fill="#FFAF36"/>
<path d="M219.728 146.659C222.619 152.298 224.745 158.298 226.05 164.499C226.263 165.986 225.883 167.496 224.992 168.706C224.101 169.915 222.771 170.726 221.288 170.965C218.902 171.447 216.428 171.23 214.162 170.341C211.897 169.451 209.936 167.928 208.516 165.952L201.561 158.033C200.336 156.306 199.678 154.241 199.678 152.125C199.678 150.008 200.336 147.943 201.561 146.216C205.65 139.497 216.841 140.34 219.728 146.659Z" fill="#F4A28C"/>
<path d="M204.954 155.105L203.311 192.407L223.943 191.839L216.862 164.92L204.954 155.105Z" fill="#F4A28C"/>
<path d="M222.699 153.209L227.294 156.074C227.555 156.237 227.771 156.463 227.92 156.732C228.07 157.001 228.148 157.304 228.148 157.612C228.148 157.919 228.07 158.222 227.92 158.491C227.771 158.76 227.555 158.986 227.294 159.149L223.627 161.635L222.699 153.209Z" fill="#F4A28C"/>
<path opacity="0.31" d="M218.527 171.092C215.911 170.757 213.45 169.666 211.446 167.953C211.446 167.953 212.52 174.693 220.74 180.591L218.527 171.092Z" fill="#CE8172"/>
<path d="M252.373 181.497C218.48 182.088 185.022 189.233 153.848 202.539C149.064 204.554 144.746 207.529 141.159 211.28C137.573 215.031 134.795 219.477 132.997 224.344C131.2 229.211 130.42 234.395 130.708 239.575C130.996 244.755 132.344 249.82 134.669 254.459L188.263 361.269L287.653 355.413C287.653 355.413 305.735 295.384 302.089 227.477C301.371 214.871 295.789 203.035 286.516 194.459C277.244 185.883 265.004 181.236 252.373 181.497Z" fill="#FFAF36"/>
<path d="M204.175 168.733L211.298 164.899L212.014 161.129C213 159.642 213.525 157.899 213.525 156.116C213.525 154.333 213 152.59 212.014 151.103C212.014 151.103 225.671 144.468 222.552 138.76C219.433 133.052 209.275 125.448 199.369 132.673C189.464 139.898 184.659 153.083 204.175 168.733Z" fill="#24285B"/>
<path d="M212.225 160.308C212.225 160.308 210.476 156.284 207.568 157.843C204.659 159.402 207.146 165.236 211.509 164.162L212.225 160.308Z" fill="#F4A28C"/>
<path d="M197.157 188.363C209.304 184.913 221.819 182.919 234.438 182.424C234.438 182.424 251.825 251.784 238.126 307.664C238.147 307.664 218.653 237.271 197.157 188.363Z" fill="white"/>
<path opacity="0.09" d="M158.294 220.611C158.294 220.611 192.52 223.454 188.158 246.876C183.795 270.298 198.695 335.087 208.748 340.48L241.267 358.067L188.305 361.184L170.897 326.515L137.936 261.178L158.294 220.611Z" fill="black"/>
<path d="M197.157 188.363C197.157 188.363 196.482 179.938 202.467 179.664C205.744 179.437 209.036 179.721 212.225 180.507C212.225 180.507 229.739 166.795 234.438 182.424C234.438 182.424 209.38 185.204 197.157 188.363Z" fill="#FFAF36"/>
<path opacity="0.77" d="M197.157 188.363C197.157 188.363 196.482 179.938 202.467 179.664C205.744 179.437 209.036 179.721 212.225 180.507C212.225 180.507 229.739 166.795 234.438 182.424C234.438 182.424 209.38 185.204 197.157 188.363Z" fill="white"/>
<path d="M209.38 185.751C209.38 185.751 207.399 179.159 211.488 178.337C215.576 177.516 219.412 174.841 220.297 183.287C221.182 191.733 212.857 192.618 209.38 185.751Z" fill="#24285B"/>
<path d="M212.141 189.016C212.141 189.016 225.292 235.523 225.418 265.432L238.063 307.558C241.71 292.536 243.472 277.119 243.311 261.662C243.311 261.662 229.739 200.474 220.128 186.173L212.141 189.016Z" fill="#24285B"/>
<path d="M422.174 209.995L425.589 203.908L442.68 216.082L438.508 222.022L422.174 209.995Z" fill="white"/>
<path d="M428.054 206.035C428.054 206.035 433.85 183.835 440.151 181.455C446.453 179.075 441.163 192.808 441.163 192.808C441.163 192.808 459.561 203.023 441.163 215.366L428.054 206.035Z" fill="#F4A28C"/>
<path d="M173.047 518.862L188.305 361.269L287.653 355.413L270.793 518.883H251.657C251.657 518.883 256.441 415.211 241.309 391.473V391.368C240.483 390.136 239.353 389.138 238.029 388.469C236.705 387.8 235.231 387.483 233.749 387.548C232.267 387.614 230.826 388.06 229.567 388.843C228.307 389.627 227.27 390.721 226.556 392.021C205.776 430.734 193.279 518.883 193.279 518.883L173.047 518.862Z" fill="#24285B"/>
<path d="M141.666 210.837C141.666 210.837 56.5442 288.18 66.3862 310.949C76.2283 333.718 165.439 373.085 165.439 373.085L175.976 359.858C175.976 359.858 127.04 313.519 126.724 307.664C126.408 301.808 145.207 294.331 161.519 273.731C177.831 253.132 191.993 204.266 141.666 210.837Z" fill="#FFAF36"/>
<path opacity="0.64" d="M141.666 210.837C141.666 210.837 56.5442 288.18 66.3862 310.949C76.2283 333.718 165.439 373.085 165.439 373.085L175.976 359.858C175.976 359.858 127.04 313.519 126.724 307.664C126.408 301.808 145.207 294.331 161.519 273.731C177.831 253.132 191.993 204.266 141.666 210.837Z" fill="white"/>
<path d="M175.955 359.858C175.955 359.858 187.23 367.777 187.926 371.337C188.621 374.896 186.999 388.882 183.711 390.041C180.423 391.199 171.698 388.419 173.553 386.565L176.545 383.574C176.545 383.574 166.303 378.498 165.418 373.043L175.955 359.858Z" fill="#F4A28C"/>
<path d="M507.676 187.479C507.676 187.479 486.221 186.404 480.721 200.664C475.22 214.924 482.997 283.399 475.389 287.843C467.781 292.288 415.009 269.413 415.009 269.413C411.706 266.672 408.1 264.319 404.261 262.399C400.467 260.946 403.797 265.39 403.945 266.759C403.945 266.759 389.192 259.493 388.792 267.581C388.391 275.669 466.495 317.374 489.13 311.076C511.764 304.778 507.549 190.175 507.549 190.175" fill="#F4A28C"/>
<path d="M562.724 395.391L580.026 522.316L571.343 521.937L530.437 394.022L562.724 395.391Z" fill="#F4A28C"/>
<path d="M521.796 394.337L500.468 518.904L491.743 518.524L492.186 392.379L521.796 394.337Z" fill="#F4A28C"/>
<path d="M580.026 522.316C580.026 522.316 584.599 528.635 590.774 528.635C596.949 528.635 597.497 537.355 587.592 536.028C584.514 535.632 581.476 534.977 578.509 534.069C575.748 533.324 572.839 533.324 570.079 534.069C569.544 534.172 568.989 534.108 568.492 533.886C567.994 533.664 567.577 533.294 567.297 532.826C564.62 529.393 571.87 522.063 571.87 522.063L580.026 522.316Z" fill="#FFAF36"/>
<path d="M492.375 518.545C492.375 518.545 487.275 524.464 481.121 523.895C474.967 523.327 473.682 532.026 483.65 531.541C486.755 531.409 489.843 531.015 492.881 530.362C495.699 529.825 498.609 530.05 501.311 531.015C501.838 531.161 502.397 531.143 502.913 530.962C503.43 530.781 503.878 530.447 504.198 530.004C507.17 526.823 500.573 518.903 500.573 518.903L492.375 518.545Z" fill="#FFAF36"/>
<path d="M554.251 294.247L581.649 431.092L473.892 433.451L489.867 293.573L554.251 294.247Z" fill="#24285B"/>
<path d="M507.444 143.331C507.444 143.331 505.568 156.263 507.254 165.026C507.418 165.875 507.749 166.684 508.227 167.405C508.705 168.126 509.322 168.746 510.041 169.228C510.76 169.709 511.567 170.044 512.417 170.212C513.266 170.38 514.14 170.378 514.989 170.207C517.742 169.824 520.327 168.658 522.435 166.846C524.543 165.035 526.084 162.655 526.875 159.992L531.448 148.807C532.127 146.475 532.064 143.99 531.267 141.696C530.471 139.401 528.98 137.411 527.001 136.001C520.005 130.272 508.203 135.39 507.444 143.331Z" fill="#F4A28C"/>
<path d="M530.437 145.627L530.5 188.448L514.588 187.331L518.93 157.759L530.437 145.627Z" fill="#F4A28C"/>
<path d="M506.685 151.524L502.744 156.348C502.526 156.622 502.379 156.947 502.318 157.292C502.257 157.637 502.283 157.992 502.394 158.325C502.505 158.657 502.697 158.957 502.954 159.197C503.21 159.436 503.522 159.608 503.861 159.697L508.814 160.939L506.685 151.524Z" fill="#F4A28C"/>
<path d="M502.892 143.562C512.86 146.436 521.694 152.322 528.182 160.413L530.163 162.898C530.163 162.898 542.449 146.89 538.593 136.864C534.736 126.839 509.214 116.16 502.892 143.562Z" fill="#24285B"/>
<path d="M539.625 134.906C544.235 134.906 547.971 131.171 547.971 126.565C547.971 121.958 544.235 118.224 539.625 118.224C535.016 118.224 531.28 121.958 531.28 126.565C531.28 131.171 535.016 134.906 539.625 134.906Z" fill="#24285B"/>
<path d="M520.679 155.316C520.679 155.316 521.058 150.303 524.894 150.913C528.73 151.524 528.14 158.77 522.976 159.149L520.679 155.316Z" fill="#F4A28C"/>
<path d="M508.055 178.253L537.708 179.517L537.413 188.743C537.413 188.743 587.276 189.943 582.387 222.148C577.497 254.353 554.273 294.331 554.273 294.331L496.464 293.931C485.798 276.449 477.593 257.581 472.08 237.861C463.903 207.236 507.781 187.479 507.781 187.479L508.055 178.253Z" fill="#FFAF36"/>
<path opacity="0.09" d="M564.388 208.858C564.388 208.858 543.061 214.376 547.128 243.485C551.196 272.594 546.559 282.367 513.408 284.263L518.571 294.794L554.272 294.331C554.272 294.331 563.293 278.302 565.548 272.362C567.803 266.422 564.388 208.858 564.388 208.858Z" fill="black"/>
<path d="M515.926 236.948L462.014 239.508L465.468 312.177L519.381 309.618L515.926 236.948Z" fill="#FFD200"/>
<path d="M525.611 302.229C525.611 302.229 520.932 290.855 510.099 291.993C499.267 293.13 506.032 313.372 520.384 314.488C534.736 315.604 564.641 351.79 583.799 334.645C602.956 317.5 604.22 223.77 580.279 207.741C556.338 191.712 555.411 240.684 564.641 269.498C573.872 298.312 580.469 333.023 525.611 302.229Z" fill="#F4A28C"/>
<path d="M602.745 308.59C602.745 308.59 602.64 309.707 602.366 311.666C600.806 323.377 593.746 364.702 571.575 369.315C545.716 374.686 517.96 362.638 517.96 362.638L512.523 375.044C512.523 375.044 555.031 418.244 586.433 404.806C617.835 391.368 630.143 355.413 630.143 355.413L602.745 308.59Z" fill="#FFAF36"/>
<path opacity="0.46" d="M602.745 308.59C602.745 308.59 602.64 309.707 602.366 311.666C600.806 323.377 593.746 364.702 571.575 369.315C545.716 374.686 517.96 362.638 517.96 362.638L512.523 375.044C512.523 375.044 555.031 418.244 586.433 404.806C617.835 391.368 630.143 355.413 630.143 355.413L602.745 308.59Z" fill="white"/>
<path d="M640.111 224.254C637.449 229.241 635.464 234.561 634.21 240.073C633.997 241.405 634.321 242.767 635.111 243.86C635.901 244.954 637.093 245.69 638.425 245.907C640.536 246.373 642.736 246.224 644.765 245.477C646.793 244.73 648.564 243.417 649.869 241.695L656.191 234.723C657.305 233.199 657.918 231.367 657.945 229.481C657.971 227.594 657.41 225.745 656.339 224.191C652.756 218.062 642.788 218.652 640.111 224.254Z" fill="#F4A28C"/>
<path d="M651.555 235.944L659.542 268.276L641.396 271.393L642.83 247.234L651.555 235.944Z" fill="#F4A28C"/>
<path d="M637.371 230.068L633.156 232.532C632.926 232.681 632.736 232.886 632.605 233.127C632.474 233.368 632.405 233.638 632.405 233.912C632.405 234.186 632.474 234.456 632.605 234.697C632.736 234.938 632.926 235.143 633.156 235.291L636.444 237.398L637.371 230.068Z" fill="#F4A28C"/>
<path opacity="0.31" d="M642.787 245.886C642.787 245.886 649.447 244.454 651.66 242.348C651.66 242.348 651.028 257.492 642.134 259.472L642.787 245.886Z" fill="#CE8172"/>
<path d="M647.951 235.481C647.951 235.481 649.553 231.9 652.166 233.375C654.779 234.849 652.44 239.967 648.562 238.872L647.951 235.481Z" fill="#F4A28C"/>
<path d="M660.743 234.828C660.28 234.828 659.753 234.828 659.268 234.828C657.372 234.955 657.751 237.292 655.517 237.208C655.14 237.146 654.76 237.103 654.379 237.082C653.958 237.13 653.552 237.268 653.188 237.486C652.825 237.704 652.512 237.997 652.271 238.346C651.817 239.035 651.246 239.64 650.585 240.136C650.252 240.325 649.883 240.441 649.501 240.478C649.12 240.514 648.735 240.469 648.372 240.347C648.124 240.273 647.904 240.126 647.74 239.925C647.445 239.462 647.74 238.851 647.972 238.346C648.374 237.552 648.712 236.728 648.984 235.881C649.216 235.144 649.405 234.407 649.595 233.775C649.785 233.143 650.585 231.29 650.227 230.7C649.869 230.11 648.815 229.963 648.33 229.562C647.846 229.162 647.424 228.425 646.644 228.004C644.895 227.035 642.767 226.972 640.975 226.066C640.27 225.755 639.685 225.223 639.31 224.549C639.135 224.215 639.063 223.836 639.104 223.461C639.146 223.086 639.298 222.731 639.542 222.443C640.216 221.769 641.65 221.474 641.418 220.547C641.418 220.168 640.996 219.916 640.68 219.684C639.836 219.1 639.136 218.332 638.633 217.438C638.129 216.544 637.834 215.547 637.772 214.524C637.734 213.496 638.054 212.488 638.676 211.67C639.299 210.852 640.186 210.275 641.186 210.037C642.408 209.826 644.01 210.037 644.579 208.963C644.77 208.364 644.813 207.728 644.705 207.109C644.688 206.324 644.905 205.55 645.328 204.888C645.752 204.226 646.363 203.705 647.084 203.391C647.805 203.077 648.603 202.984 649.377 203.125C650.15 203.266 650.865 203.634 651.428 204.182C651.955 204.708 652.398 205.403 653.114 205.53C653.831 205.656 654.842 204.729 655.664 204.161C656.288 203.762 657.007 203.534 657.747 203.501C658.486 203.467 659.222 203.63 659.879 203.971C661.197 204.691 662.197 205.878 662.682 207.299C662.821 207.856 663.072 208.38 663.42 208.837C663.8 209.179 664.266 209.412 664.769 209.511C666.876 210.037 669.49 209.511 671.091 210.88C671.744 211.46 672.157 212.263 672.251 213.131C672.344 213.999 672.111 214.871 671.597 215.577C671.049 216.251 670.227 216.819 670.206 217.683C670.23 218.164 670.399 218.627 670.691 219.01C671.766 220.737 673.009 222.738 672.293 224.634C671.576 226.529 669.089 228.172 667.677 229.478C666.265 230.784 663.462 230.3 662.451 232.027C662.008 232.806 662.134 233.901 661.481 234.512C661.264 234.675 661.011 234.783 660.743 234.828Z" fill="#24285B"/>
<path d="M654.526 232.89C654.526 232.89 659.985 231.142 660.849 235.376C661.713 239.609 655.728 241.379 652.587 238.24C653.859 236.75 654.548 234.849 654.526 232.89Z" fill="#F4A28C"/>
<path d="M728.795 449.838H610.985V533.985H728.795V449.838Z" fill="#E6E6E6"/>
<path opacity="0.08" d="M642.092 533.985L636.423 459.885L612.798 463.487L605.759 491.901L610.985 533.985H642.092Z" fill="black"/>
<path d="M639.121 524.254C639.121 524.254 636.613 531.267 630.269 531.794C623.925 532.321 622.261 538.534 627.972 540.219C633.683 541.904 648.372 534.511 648.372 534.511L647.951 525.37L639.121 524.254Z" fill="#FFAF36"/>
<path d="M639.858 271.014L657.983 267.897C657.983 267.897 718.32 267.897 728.879 288.644C739.437 309.391 737.309 386.165 702.324 449.249L630.88 451.355C630.88 451.355 634.842 405.016 621.523 379.741C608.203 354.465 566.917 300.881 639.858 271.014Z" fill="#FFAF36"/>
<path d="M702.324 449.248L667.382 443.983C662.334 443.22 657.179 443.621 652.31 445.157C647.442 446.693 642.99 449.323 639.296 452.844C635.601 456.366 632.763 460.686 630.997 465.473C629.232 470.261 628.586 475.388 629.11 480.464L633.683 524.843H650.817L649.342 483.307C649.253 480.984 649.681 478.669 650.596 476.531C651.51 474.393 652.888 472.485 654.63 470.943C656.372 469.402 658.435 468.266 660.669 467.618C662.903 466.969 665.254 466.825 667.551 467.194C682.43 469.574 700.87 468.542 702.324 449.248Z" fill="#24285B"/>
<path d="M603.546 524.254C603.546 524.254 601.017 531.267 594.694 531.794C588.372 532.321 586.686 538.534 592.376 540.219C598.066 541.904 612.798 534.511 612.798 534.511L612.376 525.37L603.546 524.254Z" fill="#FFAF36"/>
<path opacity="0.08" d="M696.213 296.037C696.213 296.037 676.402 313.393 680.364 332.56C681.018 335.656 681.692 339.405 682.345 343.513C684.922 359.402 683.958 375.664 679.521 391.138C675.083 406.612 667.283 420.917 656.676 433.03L644.178 447.311L702.324 449.248L707.298 439.517L734.443 394.443L696.213 296.037Z" fill="black"/>
<path d="M666.75 449.248L631.807 443.983C626.76 443.22 621.604 443.621 616.736 445.157C611.867 446.693 607.416 449.323 603.721 452.844C600.027 456.366 597.188 460.686 595.422 465.473C593.657 470.261 593.011 475.388 593.535 480.464L598.087 524.843H615.242L613.767 483.307C613.678 480.984 614.107 478.669 615.021 476.531C615.936 474.393 617.314 472.485 619.055 470.943C620.797 469.402 622.86 468.266 625.094 467.618C627.329 466.969 629.679 466.825 631.976 467.194C646.855 469.574 665.296 468.542 666.75 449.248Z" fill="#24285B"/>
<path d="M729.89 290.539C743.126 309.159 754.906 350.274 744.643 408.218C743.112 416.782 738.748 424.583 732.252 430.373C725.756 436.163 717.503 439.606 708.815 440.149L654.21 443.604V425.806L695.707 419.803C697.977 419.477 700.15 418.665 702.077 417.42C704.003 416.176 705.637 414.53 706.867 412.595C708.096 410.66 708.892 408.481 709.199 406.21C709.506 403.938 709.318 401.627 708.647 399.435C701.355 375.381 690.017 331.802 692.946 300.755C694.737 281.883 718.91 275.1 729.89 290.539Z" fill="#FFAF36"/>
<path opacity="0.46" d="M729.89 290.539C743.126 309.159 754.906 350.274 744.643 408.218C743.112 416.782 738.748 424.583 732.252 430.373C725.756 436.163 717.503 439.606 708.815 440.149L654.21 443.604V425.806L695.707 419.803C697.977 419.477 700.15 418.665 702.077 417.42C704.003 416.176 705.637 414.53 706.867 412.595C708.096 410.66 708.892 408.481 709.199 406.21C709.506 403.938 709.318 401.627 708.647 399.435C701.355 375.381 690.017 331.802 692.946 300.755C694.737 281.883 718.91 275.1 729.89 290.539Z" fill="white"/>
<path d="M654.21 430.123C654.21 430.123 632.06 429.555 635.243 441.097C638.425 452.64 654.21 443.604 654.21 443.604V430.123Z" fill="#F4A28C"/>
<path d="M580.49 447.753L571.554 397.223H634.99L640.49 440.297L669.574 440.718V447.753H580.49Z" fill="#FFD200"/>
<path d="M605.759 427.785C609.262 427.785 612.102 424.947 612.102 421.445C612.102 417.944 609.262 415.105 605.759 415.105C602.255 415.105 599.415 417.944 599.415 421.445C599.415 424.947 602.255 427.785 605.759 427.785Z" fill="white"/>
<path d="M517.939 362.638C517.939 362.638 514.167 353.307 512.502 354.655C512.033 355.054 511.709 355.596 511.58 356.198C511.45 356.799 511.522 357.427 511.785 357.983C511.785 357.983 507.886 351.664 506.011 351.432C504.135 351.201 500.616 356.53 500.889 360.7C501.163 364.87 512.502 375.044 512.502 375.044L517.939 362.638Z" fill="#F4A28C"/>
<path opacity="0.58" d="M336.989 510.31C336.989 510.31 319.602 505.55 315.914 489.395C315.914 489.395 342.827 483.96 343.607 511.721L336.989 510.31Z" fill="#FFAF36"/>
<path opacity="0.73" d="M339.118 508.583C339.118 508.583 326.979 489.394 337.664 471.47C337.664 471.47 358.128 484.466 349.023 508.625L339.118 508.583Z" fill="#FFAF36"/>
<path d="M342.237 508.583C342.237 508.583 348.559 488.341 368.033 484.508C368.033 484.508 371.679 497.651 355.493 508.646L342.237 508.583Z" fill="#FFAF36"/>
<path d="M329.634 508.14L333.154 532.215L355.345 532.321L358.612 508.246L329.634 508.14Z" fill="#24285B"/>
<path d="M639.373 107.987H625.506C620.37 107.987 615.285 108.998 610.54 110.963C605.796 112.928 601.485 115.808 597.855 119.438C594.224 123.069 591.345 127.379 589.382 132.121C587.418 136.864 586.409 141.947 586.412 147.08C586.415 154.837 588.727 162.419 593.054 168.859C597.381 175.299 603.528 180.307 610.711 183.245L618.509 204.582L621.544 185.941C622.86 186.085 624.182 186.156 625.506 186.152H639.373C649.74 186.146 659.681 182.028 667.011 174.702C674.341 167.375 678.462 157.441 678.467 147.08C678.467 136.716 674.349 126.775 667.018 119.445C659.687 112.114 649.744 107.993 639.373 107.987Z" fill="#F2F2F2"/>
<path d="M489.804 130.503C489.787 123.113 486.838 116.03 481.603 110.81C476.368 105.59 469.275 102.658 461.88 102.658H425.715C422.046 102.658 418.413 103.381 415.024 104.785C411.635 106.189 408.555 108.246 405.962 110.84C403.369 113.434 401.312 116.513 399.91 119.901C398.508 123.29 397.788 126.921 397.791 130.588C397.813 137.975 400.765 145.052 405.999 150.267C411.234 155.483 418.324 158.412 425.715 158.412H461.922C464.82 158.408 467.699 157.953 470.457 157.064L489.846 165.679L481.543 150.345C484.168 147.751 486.251 144.661 487.669 141.254C489.087 137.848 489.813 134.193 489.804 130.503Z" fill="#F2F2F2"/>
<path d="M333.828 85.4288H289.191C280.052 85.4288 271.288 89.0571 264.826 95.5154C258.364 101.974 254.734 110.733 254.734 119.867C254.736 125.212 255.985 130.483 258.381 135.261C260.777 140.04 264.255 144.195 268.538 147.396L258.717 166.858L280.635 153.209C283.429 153.937 286.304 154.312 289.191 154.326H333.828C342.963 154.32 351.722 150.689 358.18 144.232C364.637 137.774 368.265 129.018 368.265 119.888C368.267 115.365 367.379 110.887 365.65 106.707C363.921 102.528 361.385 98.7301 358.187 95.5303C354.989 92.3305 351.192 89.7915 347.013 88.0583C342.833 86.3251 338.353 85.4316 333.828 85.4288Z" fill="#F2F2F2"/>
</svg>
