<svg width="35" height="20" viewBox="0 0 35 20" fill="none" xmlns="http://www.w3.org/2000/svg">
<path d="M1 0.5H34C34.2761 0.5 34.5 0.723858 34.5 1C34.5 1.27614 34.2761 1.5 34 1.5H1C0.723858 1.5 0.5 1.27614 0.5 1C0.5 0.723858 0.723858 0.5 1 0.5ZM1 9.5H34C34.2761 9.5 34.5 9.72386 34.5 10C34.5 10.2761 34.2761 10.5 34 10.5H1C0.723858 10.5 0.5 10.2761 0.5 10C0.5 9.72386 0.723858 9.5 1 9.5ZM1 18.5H34C34.2761 18.5 34.5 18.7239 34.5 19C34.5 19.2761 34.2761 19.5 34 19.5H1C0.723858 19.5 0.5 19.2761 0.5 19C0.5 18.7239 0.723858 18.5 1 18.5Z" fill="#5A5A5A" stroke="#5A5A5A"/>
</svg>
