<svg width="201" height="141" viewBox="0 0 201 141" fill="none" xmlns="http://www.w3.org/2000/svg">
<path d="M180.748 134.679V136.179H182.248V134.679H180.748ZM154.091 134.679H152.591V136.179H154.091V134.679ZM154.091 120.378V118.878H152.591V120.378H154.091ZM180.748 120.378H182.248V118.878H180.748V120.378ZM193.769 134.679V136.179H195.269V134.679H193.769ZM185.613 134.679H184.113V136.179H185.613V134.679ZM149.226 117.467L150.725 117.518L150.726 117.492V117.467H149.226ZM148.637 134.679V136.179L152.637 136.179V134.679L153 133H151.5H150.5L150.725 134.679H148.637ZM6.5 134.679H5V136.179H6.5V134.679ZM6.5 9V7.5H5V9H6.5ZM193.769 9H195.269V7.5H193.769V9ZM35.137 45.1788C34.3086 45.1788 33.637 45.8504 33.637 46.6788C33.637 47.5072 34.3086 48.1788 35.137 48.1788V45.1788ZM106.137 48.1788C106.965 48.1788 107.637 47.5072 107.637 46.6788C107.637 45.8504 106.965 45.1788 106.137 45.1788V48.1788ZM35.137 63.1788C34.3086 63.1788 33.637 63.8504 33.637 64.6788C33.637 65.5072 34.3086 66.1788 35.137 66.1788V63.1788ZM138.137 66.1788C138.965 66.1788 139.637 65.5072 139.637 64.6788C139.637 63.8504 138.965 63.1788 138.137 63.1788V66.1788ZM35.137 78.1788C34.3086 78.1788 33.637 78.8504 33.637 79.6788C33.637 80.5072 34.3086 81.1788 35.137 81.1788V78.1788ZM123.137 81.1788C123.965 81.1788 124.637 80.5072 124.637 79.6788C124.637 78.8504 123.965 78.1788 123.137 78.1788V81.1788ZM35.137 93.1788C34.3086 93.1788 33.637 93.8504 33.637 94.6788C33.637 95.5072 34.3086 96.1788 35.137 96.1788V93.1788ZM123.137 96.1788C123.965 96.1788 124.637 95.5072 124.637 94.6788C124.637 93.8504 123.965 93.1788 123.137 93.1788V96.1788ZM155.591 134.679V120.378H152.591V134.679H155.591ZM154.091 121.878H180.748V118.878H154.091V121.878ZM179.248 120.378V134.679H182.248V120.378H179.248ZM187.113 134.679V117.467H184.113V134.679H187.113ZM187.113 117.467C187.113 115.298 185.593 113.055 183.18 113.055V116.055C183.452 116.055 184.113 116.426 184.113 117.467H187.113ZM183.18 113.055H151.658V116.055H183.18V113.055ZM151.658 113.055C149.246 113.055 147.726 115.298 147.726 117.467H150.726C150.726 116.426 151.387 116.055 151.658 116.055V113.055ZM147.727 117.415L147.637 125.679V130.179V132.179V133.179V134.179V134.679L150.725 134.679V117.518L147.727 117.415ZM8 134.679V9H5V134.679H8ZM6.5 10.5H193.769V7.5H6.5V10.5ZM192.269 9V134.679H195.269V9H192.269ZM35.137 48.1788H106.137V45.1788H35.137V48.1788ZM35.137 66.1788H138.137V63.1788H35.137V66.1788ZM35.137 81.1788H123.137V78.1788H35.137V81.1788ZM35.137 96.1788H123.137V93.1788H35.137V96.1788ZM148.637 133.179H6.5V136.179H148.637V133.179ZM193.769 133.179H185.613V136.179H193.769V133.179ZM184.5 133L154.091 133.179V136.179H180.748H184.5V133Z" fill="white"/>
</svg>
